<?xml version="1.0" encoding="utf-8"?>
<svg xmlns="http://www.w3.org/2000/svg" xmlns:xlink="http://www.w3.org/1999/xlink" width="600" height="400" viewBox="0 0 2400 1600">
<defs>
  <clipPath id="clip180">
    <rect x="0" y="0" width="2400" height="1600"/>
  </clipPath>
</defs>
<path clip-path="url(#clip180)" d="
M0 1600 L2400 1600 L2400 0 L0 0  Z
  " fill="#ffffff" fill-rule="evenodd" fill-opacity="1"/>
<defs>
  <clipPath id="clip181">
    <rect x="480" y="0" width="1681" height="1600"/>
  </clipPath>
</defs>
<path clip-path="url(#clip180)" d="
M262.551 1423.18 L2352.76 1423.18 L2352.76 47.2441 L262.551 47.2441  Z
  " fill="#ffffff" fill-rule="evenodd" fill-opacity="1"/>
<defs>
  <clipPath id="clip182">
    <rect x="262" y="47" width="2091" height="1377"/>
  </clipPath>
</defs>
<polyline clip-path="url(#clip182)" style="stroke:#000000; stroke-linecap:butt; stroke-linejoin:round; stroke-width:2; stroke-opacity:0.1; fill:none" points="
  321.708,1423.18 321.708,47.2441 
  "/>
<polyline clip-path="url(#clip182)" style="stroke:#000000; stroke-linecap:butt; stroke-linejoin:round; stroke-width:2; stroke-opacity:0.1; fill:none" points="
  872.177,1423.18 872.177,47.2441 
  "/>
<polyline clip-path="url(#clip182)" style="stroke:#000000; stroke-linecap:butt; stroke-linejoin:round; stroke-width:2; stroke-opacity:0.1; fill:none" points="
  1422.65,1423.18 1422.65,47.2441 
  "/>
<polyline clip-path="url(#clip182)" style="stroke:#000000; stroke-linecap:butt; stroke-linejoin:round; stroke-width:2; stroke-opacity:0.1; fill:none" points="
  1973.12,1423.18 1973.12,47.2441 
  "/>
<polyline clip-path="url(#clip180)" style="stroke:#000000; stroke-linecap:butt; stroke-linejoin:round; stroke-width:4; stroke-opacity:1; fill:none" points="
  262.551,1423.18 2352.76,1423.18 
  "/>
<polyline clip-path="url(#clip180)" style="stroke:#000000; stroke-linecap:butt; stroke-linejoin:round; stroke-width:4; stroke-opacity:1; fill:none" points="
  321.708,1423.18 321.708,1404.28 
  "/>
<polyline clip-path="url(#clip180)" style="stroke:#000000; stroke-linecap:butt; stroke-linejoin:round; stroke-width:4; stroke-opacity:1; fill:none" points="
  872.177,1423.18 872.177,1404.28 
  "/>
<polyline clip-path="url(#clip180)" style="stroke:#000000; stroke-linecap:butt; stroke-linejoin:round; stroke-width:4; stroke-opacity:1; fill:none" points="
  1422.65,1423.18 1422.65,1404.28 
  "/>
<polyline clip-path="url(#clip180)" style="stroke:#000000; stroke-linecap:butt; stroke-linejoin:round; stroke-width:4; stroke-opacity:1; fill:none" points="
  1973.12,1423.18 1973.12,1404.28 
  "/>
<path clip-path="url(#clip180)" d="M321.708 1454.1 Q318.097 1454.1 316.268 1457.66 Q314.463 1461.2 314.463 1468.33 Q314.463 1475.44 316.268 1479.01 Q318.097 1482.55 321.708 1482.55 Q325.342 1482.55 327.148 1479.01 Q328.976 1475.44 328.976 1468.33 Q328.976 1461.2 327.148 1457.66 Q325.342 1454.1 321.708 1454.1 M321.708 1450.39 Q327.518 1450.39 330.574 1455 Q333.652 1459.58 333.652 1468.33 Q333.652 1477.06 330.574 1481.67 Q327.518 1486.25 321.708 1486.25 Q315.898 1486.25 312.819 1481.67 Q309.764 1477.06 309.764 1468.33 Q309.764 1459.58 312.819 1455 Q315.898 1450.39 321.708 1450.39 Z" fill="#000000" fill-rule="evenodd" fill-opacity="1" /><path clip-path="url(#clip180)" d="M831.796 1451.02 L850.152 1451.02 L850.152 1454.96 L836.078 1454.96 L836.078 1463.43 Q837.096 1463.08 838.115 1462.92 Q839.133 1462.73 840.152 1462.73 Q845.939 1462.73 849.319 1465.9 Q852.698 1469.08 852.698 1474.49 Q852.698 1480.07 849.226 1483.17 Q845.754 1486.25 839.434 1486.25 Q837.258 1486.25 834.99 1485.88 Q832.745 1485.51 830.337 1484.77 L830.337 1480.07 Q832.421 1481.2 834.643 1481.76 Q836.865 1482.32 839.342 1482.32 Q843.346 1482.32 845.684 1480.21 Q848.022 1478.1 848.022 1474.49 Q848.022 1470.88 845.684 1468.77 Q843.346 1466.67 839.342 1466.67 Q837.467 1466.67 835.592 1467.08 Q833.74 1467.5 831.796 1468.38 L831.796 1451.02 Z" fill="#000000" fill-rule="evenodd" fill-opacity="1" /><path clip-path="url(#clip180)" d="M871.911 1454.1 Q868.3 1454.1 866.471 1457.66 Q864.666 1461.2 864.666 1468.33 Q864.666 1475.44 866.471 1479.01 Q868.3 1482.55 871.911 1482.55 Q875.545 1482.55 877.351 1479.01 Q879.18 1475.44 879.18 1468.33 Q879.18 1461.2 877.351 1457.66 Q875.545 1454.1 871.911 1454.1 M871.911 1450.39 Q877.721 1450.39 880.777 1455 Q883.855 1459.58 883.855 1468.33 Q883.855 1477.06 880.777 1481.67 Q877.721 1486.25 871.911 1486.25 Q866.101 1486.25 863.022 1481.67 Q859.967 1477.06 859.967 1468.33 Q859.967 1459.58 863.022 1455 Q866.101 1450.39 871.911 1450.39 Z" fill="#000000" fill-rule="evenodd" fill-opacity="1" /><path clip-path="url(#clip180)" d="M902.073 1454.1 Q898.462 1454.1 896.633 1457.66 Q894.828 1461.2 894.828 1468.33 Q894.828 1475.44 896.633 1479.01 Q898.462 1482.55 902.073 1482.55 Q905.707 1482.55 907.513 1479.01 Q909.341 1475.44 909.341 1468.33 Q909.341 1461.2 907.513 1457.66 Q905.707 1454.1 902.073 1454.1 M902.073 1450.39 Q907.883 1450.39 910.939 1455 Q914.017 1459.58 914.017 1468.33 Q914.017 1477.06 910.939 1481.67 Q907.883 1486.25 902.073 1486.25 Q896.263 1486.25 893.184 1481.67 Q890.129 1477.06 890.129 1468.33 Q890.129 1459.58 893.184 1455 Q896.263 1450.39 902.073 1450.39 Z" fill="#000000" fill-rule="evenodd" fill-opacity="1" /><path clip-path="url(#clip180)" d="M1367.17 1481.64 L1374.81 1481.64 L1374.81 1455.28 L1366.5 1456.95 L1366.5 1452.69 L1374.76 1451.02 L1379.44 1451.02 L1379.44 1481.64 L1387.08 1481.64 L1387.08 1485.58 L1367.17 1485.58 L1367.17 1481.64 Z" fill="#000000" fill-rule="evenodd" fill-opacity="1" /><path clip-path="url(#clip180)" d="M1406.52 1454.1 Q1402.91 1454.1 1401.08 1457.66 Q1399.28 1461.2 1399.28 1468.33 Q1399.28 1475.44 1401.08 1479.01 Q1402.91 1482.55 1406.52 1482.55 Q1410.16 1482.55 1411.96 1479.01 Q1413.79 1475.44 1413.79 1468.33 Q1413.79 1461.2 1411.96 1457.66 Q1410.16 1454.1 1406.52 1454.1 M1406.52 1450.39 Q1412.33 1450.39 1415.39 1455 Q1418.47 1459.58 1418.47 1468.33 Q1418.47 1477.06 1415.39 1481.67 Q1412.33 1486.25 1406.52 1486.25 Q1400.71 1486.25 1397.64 1481.67 Q1394.58 1477.06 1394.58 1468.33 Q1394.58 1459.58 1397.64 1455 Q1400.71 1450.39 1406.52 1450.39 Z" fill="#000000" fill-rule="evenodd" fill-opacity="1" /><path clip-path="url(#clip180)" d="M1436.69 1454.1 Q1433.07 1454.1 1431.25 1457.66 Q1429.44 1461.2 1429.44 1468.33 Q1429.44 1475.44 1431.25 1479.01 Q1433.07 1482.55 1436.69 1482.55 Q1440.32 1482.55 1442.13 1479.01 Q1443.95 1475.44 1443.95 1468.33 Q1443.95 1461.2 1442.13 1457.66 Q1440.32 1454.1 1436.69 1454.1 M1436.69 1450.39 Q1442.5 1450.39 1445.55 1455 Q1448.63 1459.58 1448.63 1468.33 Q1448.63 1477.06 1445.55 1481.67 Q1442.5 1486.25 1436.69 1486.25 Q1430.88 1486.25 1427.8 1481.67 Q1424.74 1477.06 1424.74 1468.33 Q1424.74 1459.58 1427.8 1455 Q1430.88 1450.39 1436.69 1450.39 Z" fill="#000000" fill-rule="evenodd" fill-opacity="1" /><path clip-path="url(#clip180)" d="M1466.85 1454.1 Q1463.24 1454.1 1461.41 1457.66 Q1459.6 1461.2 1459.6 1468.33 Q1459.6 1475.44 1461.41 1479.01 Q1463.24 1482.55 1466.85 1482.55 Q1470.48 1482.55 1472.29 1479.01 Q1474.12 1475.44 1474.12 1468.33 Q1474.12 1461.2 1472.29 1457.66 Q1470.48 1454.1 1466.85 1454.1 M1466.85 1450.39 Q1472.66 1450.39 1475.71 1455 Q1478.79 1459.58 1478.79 1468.33 Q1478.79 1477.06 1475.71 1481.67 Q1472.66 1486.25 1466.85 1486.25 Q1461.04 1486.25 1457.96 1481.67 Q1454.9 1477.06 1454.9 1468.33 Q1454.9 1459.58 1457.96 1455 Q1461.04 1450.39 1466.85 1450.39 Z" fill="#000000" fill-rule="evenodd" fill-opacity="1" /><path clip-path="url(#clip180)" d="M1917.64 1481.64 L1925.28 1481.64 L1925.28 1455.28 L1916.97 1456.95 L1916.97 1452.69 L1925.23 1451.02 L1929.91 1451.02 L1929.91 1481.64 L1937.55 1481.64 L1937.55 1485.58 L1917.64 1485.58 L1917.64 1481.64 Z" fill="#000000" fill-rule="evenodd" fill-opacity="1" /><path clip-path="url(#clip180)" d="M1947.04 1451.02 L1965.4 1451.02 L1965.4 1454.96 L1951.32 1454.96 L1951.32 1463.43 Q1952.34 1463.08 1953.36 1462.92 Q1954.38 1462.73 1955.4 1462.73 Q1961.18 1462.73 1964.56 1465.9 Q1967.94 1469.08 1967.94 1474.49 Q1967.94 1480.07 1964.47 1483.17 Q1961 1486.25 1954.68 1486.25 Q1952.5 1486.25 1950.23 1485.88 Q1947.99 1485.51 1945.58 1484.77 L1945.58 1480.07 Q1947.66 1481.2 1949.89 1481.76 Q1952.11 1482.32 1954.59 1482.32 Q1958.59 1482.32 1960.93 1480.21 Q1963.27 1478.1 1963.27 1474.49 Q1963.27 1470.88 1960.93 1468.77 Q1958.59 1466.67 1954.59 1466.67 Q1952.71 1466.67 1950.84 1467.08 Q1948.98 1467.5 1947.04 1468.38 L1947.04 1451.02 Z" fill="#000000" fill-rule="evenodd" fill-opacity="1" /><path clip-path="url(#clip180)" d="M1987.16 1454.1 Q1983.54 1454.1 1981.72 1457.66 Q1979.91 1461.2 1979.91 1468.33 Q1979.91 1475.44 1981.72 1479.01 Q1983.54 1482.55 1987.16 1482.55 Q1990.79 1482.55 1992.59 1479.01 Q1994.42 1475.44 1994.42 1468.33 Q1994.42 1461.2 1992.59 1457.66 Q1990.79 1454.1 1987.16 1454.1 M1987.16 1450.39 Q1992.97 1450.39 1996.02 1455 Q1999.1 1459.58 1999.1 1468.33 Q1999.1 1477.06 1996.02 1481.67 Q1992.97 1486.25 1987.16 1486.25 Q1981.35 1486.25 1978.27 1481.67 Q1975.21 1477.06 1975.21 1468.33 Q1975.21 1459.58 1978.27 1455 Q1981.35 1450.39 1987.16 1450.39 Z" fill="#000000" fill-rule="evenodd" fill-opacity="1" /><path clip-path="url(#clip180)" d="M2017.32 1454.1 Q2013.71 1454.1 2011.88 1457.66 Q2010.07 1461.2 2010.07 1468.33 Q2010.07 1475.44 2011.88 1479.01 Q2013.71 1482.55 2017.32 1482.55 Q2020.95 1482.55 2022.76 1479.01 Q2024.59 1475.44 2024.59 1468.33 Q2024.59 1461.2 2022.76 1457.66 Q2020.95 1454.1 2017.32 1454.1 M2017.32 1450.39 Q2023.13 1450.39 2026.18 1455 Q2029.26 1459.58 2029.26 1468.33 Q2029.26 1477.06 2026.18 1481.67 Q2023.13 1486.25 2017.32 1486.25 Q2011.51 1486.25 2008.43 1481.67 Q2005.37 1477.06 2005.37 1468.33 Q2005.37 1459.58 2008.43 1455 Q2011.51 1450.39 2017.32 1450.39 Z" fill="#000000" fill-rule="evenodd" fill-opacity="1" /><path clip-path="url(#clip180)" d="M1018.91 1525.81 L1018.91 1562.76 L1026.67 1562.76 Q1036.51 1562.76 1041.06 1558.3 Q1045.64 1553.85 1045.64 1544.24 Q1045.64 1534.69 1041.06 1530.26 Q1036.51 1525.81 1026.67 1525.81 L1018.91 1525.81 M1012.48 1520.52 L1025.68 1520.52 Q1039.5 1520.52 1045.96 1526.28 Q1052.42 1532.01 1052.42 1544.24 Q1052.42 1556.52 1045.93 1562.28 Q1039.43 1568.04 1025.68 1568.04 L1012.48 1568.04 L1012.48 1520.52 Z" fill="#000000" fill-rule="evenodd" fill-opacity="1" /><path clip-path="url(#clip180)" d="M1092.91 1548.76 L1092.91 1551.62 L1065.98 1551.62 Q1066.36 1557.67 1069.61 1560.85 Q1072.89 1564 1078.71 1564 Q1082.08 1564 1085.24 1563.17 Q1088.42 1562.35 1091.54 1560.69 L1091.54 1566.23 Q1088.39 1567.57 1085.08 1568.27 Q1081.77 1568.97 1078.36 1568.97 Q1069.83 1568.97 1064.83 1564 Q1059.87 1559.04 1059.87 1550.57 Q1059.87 1541.82 1064.58 1536.69 Q1069.32 1531.54 1077.34 1531.54 Q1084.54 1531.54 1088.71 1536.18 Q1092.91 1540.8 1092.91 1548.76 M1087.05 1547.04 Q1086.99 1542.23 1084.34 1539.37 Q1081.73 1536.5 1077.41 1536.5 Q1072.5 1536.5 1069.54 1539.27 Q1066.62 1542.04 1066.17 1547.07 L1087.05 1547.04 Z" fill="#000000" fill-rule="evenodd" fill-opacity="1" /><path clip-path="url(#clip180)" d="M1132.15 1546.53 L1132.15 1568.04 L1126.29 1568.04 L1126.29 1546.72 Q1126.29 1541.66 1124.32 1539.14 Q1122.35 1536.63 1118.4 1536.63 Q1113.66 1536.63 1110.92 1539.65 Q1108.18 1542.68 1108.18 1547.9 L1108.18 1568.04 L1102.3 1568.04 L1102.3 1532.4 L1108.18 1532.4 L1108.18 1537.93 Q1110.28 1534.72 1113.12 1533.13 Q1115.98 1531.54 1119.71 1531.54 Q1125.85 1531.54 1129 1535.36 Q1132.15 1539.14 1132.15 1546.53 Z" fill="#000000" fill-rule="evenodd" fill-opacity="1" /><path clip-path="url(#clip180)" d="M1166.56 1533.45 L1166.56 1538.98 Q1164.08 1537.71 1161.4 1537.07 Q1158.73 1536.44 1155.86 1536.44 Q1151.5 1536.44 1149.31 1537.77 Q1147.14 1539.11 1147.14 1541.79 Q1147.14 1543.82 1148.7 1545 Q1150.26 1546.15 1154.97 1547.2 L1156.98 1547.64 Q1163.22 1548.98 1165.83 1551.43 Q1168.47 1553.85 1168.47 1558.21 Q1168.47 1563.17 1164.52 1566.07 Q1160.61 1568.97 1153.73 1568.97 Q1150.87 1568.97 1147.75 1568.39 Q1144.66 1567.85 1141.22 1566.74 L1141.22 1560.69 Q1144.47 1562.38 1147.62 1563.24 Q1150.77 1564.07 1153.86 1564.07 Q1158 1564.07 1160.22 1562.66 Q1162.45 1561.23 1162.45 1558.65 Q1162.45 1556.27 1160.83 1554.99 Q1159.24 1553.72 1153.79 1552.54 L1151.76 1552.07 Q1146.31 1550.92 1143.9 1548.56 Q1141.48 1546.18 1141.48 1542.04 Q1141.48 1537.01 1145.04 1534.27 Q1148.61 1531.54 1155.16 1531.54 Q1158.41 1531.54 1161.27 1532.01 Q1164.14 1532.49 1166.56 1533.45 Z" fill="#000000" fill-rule="evenodd" fill-opacity="1" /><path clip-path="url(#clip180)" d="M1177.79 1532.4 L1183.65 1532.4 L1183.65 1568.04 L1177.79 1568.04 L1177.79 1532.4 M1177.79 1518.52 L1183.65 1518.52 L1183.65 1525.93 L1177.79 1525.93 L1177.79 1518.52 Z" fill="#000000" fill-rule="evenodd" fill-opacity="1" /><path clip-path="url(#clip180)" d="M1201.7 1522.27 L1201.7 1532.4 L1213.76 1532.4 L1213.76 1536.95 L1201.7 1536.95 L1201.7 1556.3 Q1201.7 1560.66 1202.87 1561.9 Q1204.08 1563.14 1207.74 1563.14 L1213.76 1563.14 L1213.76 1568.04 L1207.74 1568.04 Q1200.96 1568.04 1198.39 1565.53 Q1195.81 1562.98 1195.81 1556.3 L1195.81 1536.95 L1191.51 1536.95 L1191.51 1532.4 L1195.81 1532.4 L1195.81 1522.27 L1201.7 1522.27 Z" fill="#000000" fill-rule="evenodd" fill-opacity="1" /><path clip-path="url(#clip180)" d="M1236.29 1571.35 Q1233.81 1577.72 1231.46 1579.66 Q1229.1 1581.6 1225.15 1581.6 L1220.48 1581.6 L1220.48 1576.7 L1223.91 1576.7 Q1226.33 1576.7 1227.67 1575.56 Q1229.01 1574.41 1230.63 1570.14 L1231.68 1567.47 L1217.26 1532.4 L1223.47 1532.4 L1234.61 1560.28 L1245.75 1532.4 L1251.95 1532.4 L1236.29 1571.35 Z" fill="#000000" fill-rule="evenodd" fill-opacity="1" /><path clip-path="url(#clip180)" d="M1294.83 1518.58 Q1290.56 1525.9 1288.49 1533.06 Q1286.42 1540.23 1286.42 1547.58 Q1286.42 1554.93 1288.49 1562.16 Q1290.59 1569.35 1294.83 1576.64 L1289.73 1576.64 Q1284.96 1569.16 1282.57 1561.93 Q1280.22 1554.71 1280.22 1547.58 Q1280.22 1540.48 1282.57 1533.29 Q1284.93 1526.09 1289.73 1518.58 L1294.83 1518.58 Z" fill="#000000" fill-rule="evenodd" fill-opacity="1" /><path clip-path="url(#clip180)" d="M1305.97 1518.52 L1311.85 1518.52 L1311.85 1547.77 L1329.33 1532.4 L1336.81 1532.4 L1317.9 1549.07 L1337.6 1568.04 L1329.97 1568.04 L1311.85 1550.63 L1311.85 1568.04 L1305.97 1568.04 L1305.97 1518.52 Z" fill="#000000" fill-rule="evenodd" fill-opacity="1" /><path clip-path="url(#clip180)" d="M1367.4 1549.81 Q1367.4 1543.44 1364.75 1539.94 Q1362.14 1536.44 1357.4 1536.44 Q1352.69 1536.44 1350.05 1539.94 Q1347.44 1543.44 1347.44 1549.81 Q1347.44 1556.14 1350.05 1559.64 Q1352.69 1563.14 1357.4 1563.14 Q1362.14 1563.14 1364.75 1559.64 Q1367.4 1556.14 1367.4 1549.81 M1373.25 1563.62 Q1373.25 1572.72 1369.21 1577.15 Q1365.17 1581.6 1356.83 1581.6 Q1353.74 1581.6 1351 1581.13 Q1348.27 1580.68 1345.69 1579.72 L1345.69 1574.03 Q1348.27 1575.43 1350.78 1576.1 Q1353.3 1576.76 1355.91 1576.76 Q1361.67 1576.76 1364.53 1573.74 Q1367.4 1570.75 1367.4 1564.67 L1367.4 1561.77 Q1365.58 1564.92 1362.75 1566.48 Q1359.92 1568.04 1355.97 1568.04 Q1349.41 1568.04 1345.4 1563.05 Q1341.39 1558.05 1341.39 1549.81 Q1341.39 1541.53 1345.4 1536.53 Q1349.41 1531.54 1355.97 1531.54 Q1359.92 1531.54 1362.75 1533.1 Q1365.58 1534.66 1367.4 1537.81 L1367.4 1532.4 L1373.25 1532.4 L1373.25 1563.62 Z" fill="#000000" fill-rule="evenodd" fill-opacity="1" /><path clip-path="url(#clip180)" d="M1433.79 1539.24 Q1435.99 1535.29 1439.04 1533.41 Q1442.1 1531.54 1446.23 1531.54 Q1451.8 1531.54 1454.83 1535.45 Q1457.85 1539.33 1457.85 1546.53 L1457.85 1568.04 L1451.96 1568.04 L1451.96 1546.72 Q1451.96 1541.59 1450.15 1539.11 Q1448.34 1536.63 1444.61 1536.63 Q1440.06 1536.63 1437.42 1539.65 Q1434.78 1542.68 1434.78 1547.9 L1434.78 1568.04 L1428.89 1568.04 L1428.89 1546.72 Q1428.89 1541.56 1427.07 1539.11 Q1425.26 1536.63 1421.47 1536.63 Q1416.98 1536.63 1414.34 1539.68 Q1411.7 1542.71 1411.7 1547.9 L1411.7 1568.04 L1405.81 1568.04 L1405.81 1532.4 L1411.7 1532.4 L1411.7 1537.93 Q1413.71 1534.66 1416.51 1533.1 Q1419.31 1531.54 1423.16 1531.54 Q1427.04 1531.54 1429.75 1533.51 Q1432.49 1535.48 1433.79 1539.24 Z" fill="#000000" fill-rule="evenodd" fill-opacity="1" /><path clip-path="url(#clip180)" d="M1493.82 1520.52 L1511.1 1538.25 L1504.7 1538.25 L1490.7 1525.68 L1476.69 1538.25 L1470.3 1538.25 L1487.58 1520.52 L1493.82 1520.52 Z" fill="#000000" fill-rule="evenodd" fill-opacity="1" /><path clip-path="url(#clip180)" d="M1521.19 1547.58 L1538.35 1547.58 L1538.35 1552.8 L1521.19 1552.8 L1521.19 1547.58 Z" fill="#000000" fill-rule="evenodd" fill-opacity="1" /><path clip-path="url(#clip180)" d="M1567.98 1542.42 Q1572.59 1543.41 1575.17 1546.53 Q1577.78 1549.65 1577.78 1554.23 Q1577.78 1561.26 1572.94 1565.12 Q1568.11 1568.97 1559.19 1568.97 Q1556.2 1568.97 1553.02 1568.36 Q1549.87 1567.79 1546.49 1566.61 L1546.49 1560.4 Q1549.17 1561.96 1552.35 1562.76 Q1555.53 1563.56 1559 1563.56 Q1565.05 1563.56 1568.2 1561.17 Q1571.38 1558.78 1571.38 1554.23 Q1571.38 1550.03 1568.42 1547.67 Q1565.5 1545.29 1560.24 1545.29 L1554.71 1545.29 L1554.71 1540 L1560.5 1540 Q1565.24 1540 1567.76 1538.13 Q1570.27 1536.22 1570.27 1532.65 Q1570.27 1528.99 1567.66 1527.05 Q1565.08 1525.08 1560.24 1525.08 Q1557.6 1525.08 1554.58 1525.65 Q1551.56 1526.22 1547.93 1527.43 L1547.93 1521.7 Q1551.59 1520.68 1554.77 1520.17 Q1557.98 1519.66 1560.82 1519.66 Q1568.14 1519.66 1572.4 1523.01 Q1576.67 1526.32 1576.67 1531.98 Q1576.67 1535.93 1574.41 1538.67 Q1572.15 1541.37 1567.98 1542.42 Z" fill="#000000" fill-rule="evenodd" fill-opacity="1" /><path clip-path="url(#clip180)" d="M1588.22 1518.58 L1593.31 1518.58 Q1598.09 1526.09 1600.44 1533.29 Q1602.83 1540.48 1602.83 1547.58 Q1602.83 1554.71 1600.44 1561.93 Q1598.09 1569.16 1593.31 1576.64 L1588.22 1576.64 Q1592.46 1569.35 1594.52 1562.16 Q1596.62 1554.93 1596.62 1547.58 Q1596.62 1540.23 1594.52 1533.06 Q1592.46 1525.9 1588.22 1518.58 Z" fill="#000000" fill-rule="evenodd" fill-opacity="1" /><polyline clip-path="url(#clip182)" style="stroke:#000000; stroke-linecap:butt; stroke-linejoin:round; stroke-width:2; stroke-opacity:0.1; fill:none" points="
  262.551,1384.24 2352.76,1384.24 
  "/>
<polyline clip-path="url(#clip182)" style="stroke:#000000; stroke-linecap:butt; stroke-linejoin:round; stroke-width:2; stroke-opacity:0.1; fill:none" points="
  262.551,1059.73 2352.76,1059.73 
  "/>
<polyline clip-path="url(#clip182)" style="stroke:#000000; stroke-linecap:butt; stroke-linejoin:round; stroke-width:2; stroke-opacity:0.1; fill:none" points="
  262.551,735.212 2352.76,735.212 
  "/>
<polyline clip-path="url(#clip182)" style="stroke:#000000; stroke-linecap:butt; stroke-linejoin:round; stroke-width:2; stroke-opacity:0.1; fill:none" points="
  262.551,410.699 2352.76,410.699 
  "/>
<polyline clip-path="url(#clip182)" style="stroke:#000000; stroke-linecap:butt; stroke-linejoin:round; stroke-width:2; stroke-opacity:0.1; fill:none" points="
  262.551,86.1857 2352.76,86.1857 
  "/>
<polyline clip-path="url(#clip180)" style="stroke:#000000; stroke-linecap:butt; stroke-linejoin:round; stroke-width:4; stroke-opacity:1; fill:none" points="
  262.551,1423.18 262.551,47.2441 
  "/>
<polyline clip-path="url(#clip180)" style="stroke:#000000; stroke-linecap:butt; stroke-linejoin:round; stroke-width:4; stroke-opacity:1; fill:none" points="
  262.551,1384.24 281.449,1384.24 
  "/>
<polyline clip-path="url(#clip180)" style="stroke:#000000; stroke-linecap:butt; stroke-linejoin:round; stroke-width:4; stroke-opacity:1; fill:none" points="
  262.551,1059.73 281.449,1059.73 
  "/>
<polyline clip-path="url(#clip180)" style="stroke:#000000; stroke-linecap:butt; stroke-linejoin:round; stroke-width:4; stroke-opacity:1; fill:none" points="
  262.551,735.212 281.449,735.212 
  "/>
<polyline clip-path="url(#clip180)" style="stroke:#000000; stroke-linecap:butt; stroke-linejoin:round; stroke-width:4; stroke-opacity:1; fill:none" points="
  262.551,410.699 281.449,410.699 
  "/>
<polyline clip-path="url(#clip180)" style="stroke:#000000; stroke-linecap:butt; stroke-linejoin:round; stroke-width:4; stroke-opacity:1; fill:none" points="
  262.551,86.1857 281.449,86.1857 
  "/>
<path clip-path="url(#clip180)" d="M214.607 1370.04 Q210.996 1370.04 209.167 1373.6 Q207.362 1377.14 207.362 1384.27 Q207.362 1391.38 209.167 1394.94 Q210.996 1398.49 214.607 1398.49 Q218.241 1398.49 220.047 1394.94 Q221.875 1391.38 221.875 1384.27 Q221.875 1377.14 220.047 1373.6 Q218.241 1370.04 214.607 1370.04 M214.607 1366.33 Q220.417 1366.33 223.473 1370.94 Q226.551 1375.52 226.551 1384.27 Q226.551 1393 223.473 1397.61 Q220.417 1402.19 214.607 1402.19 Q208.797 1402.19 205.718 1397.61 Q202.662 1393 202.662 1384.27 Q202.662 1375.52 205.718 1370.94 Q208.797 1366.33 214.607 1366.33 Z" fill="#000000" fill-rule="evenodd" fill-opacity="1" /><path clip-path="url(#clip180)" d="M148.311 1073.07 L164.63 1073.07 L164.63 1077.01 L142.686 1077.01 L142.686 1073.07 Q145.348 1070.32 149.931 1065.69 Q154.538 1061.03 155.718 1059.69 Q157.964 1057.17 158.843 1055.43 Q159.746 1053.67 159.746 1051.98 Q159.746 1049.23 157.802 1047.49 Q155.88 1045.76 152.778 1045.76 Q150.579 1045.76 148.126 1046.52 Q145.695 1047.28 142.917 1048.83 L142.917 1044.11 Q145.741 1042.98 148.195 1042.4 Q150.649 1041.82 152.686 1041.82 Q158.056 1041.82 161.251 1044.51 Q164.445 1047.19 164.445 1051.68 Q164.445 1053.81 163.635 1055.73 Q162.848 1057.63 160.741 1060.22 Q160.163 1060.89 157.061 1064.11 Q153.959 1067.31 148.311 1073.07 Z" fill="#000000" fill-rule="evenodd" fill-opacity="1" /><path clip-path="url(#clip180)" d="M174.491 1042.45 L192.848 1042.45 L192.848 1046.38 L178.774 1046.38 L178.774 1054.85 Q179.792 1054.51 180.811 1054.34 Q181.829 1054.16 182.848 1054.16 Q188.635 1054.16 192.014 1057.33 Q195.394 1060.5 195.394 1065.92 Q195.394 1071.5 191.922 1074.6 Q188.45 1077.68 182.13 1077.68 Q179.954 1077.68 177.686 1077.31 Q175.44 1076.94 173.033 1076.19 L173.033 1071.5 Q175.116 1072.63 177.339 1073.19 Q179.561 1073.74 182.038 1073.74 Q186.042 1073.74 188.38 1071.63 Q190.718 1069.53 190.718 1065.92 Q190.718 1062.31 188.38 1060.2 Q186.042 1058.09 182.038 1058.09 Q180.163 1058.09 178.288 1058.51 Q176.436 1058.93 174.491 1059.81 L174.491 1042.45 Z" fill="#000000" fill-rule="evenodd" fill-opacity="1" /><path clip-path="url(#clip180)" d="M214.607 1045.52 Q210.996 1045.52 209.167 1049.09 Q207.362 1052.63 207.362 1059.76 Q207.362 1066.87 209.167 1070.43 Q210.996 1073.97 214.607 1073.97 Q218.241 1073.97 220.047 1070.43 Q221.875 1066.87 221.875 1059.76 Q221.875 1052.63 220.047 1049.09 Q218.241 1045.52 214.607 1045.52 M214.607 1041.82 Q220.417 1041.82 223.473 1046.43 Q226.551 1051.01 226.551 1059.76 Q226.551 1068.49 223.473 1073.09 Q220.417 1077.68 214.607 1077.68 Q208.797 1077.68 205.718 1073.09 Q202.662 1068.49 202.662 1059.76 Q202.662 1051.01 205.718 1046.43 Q208.797 1041.82 214.607 1041.82 Z" fill="#000000" fill-rule="evenodd" fill-opacity="1" /><path clip-path="url(#clip180)" d="M144.329 717.932 L162.686 717.932 L162.686 721.867 L148.612 721.867 L148.612 730.339 Q149.63 729.992 150.649 729.83 Q151.667 729.645 152.686 729.645 Q158.473 729.645 161.852 732.816 Q165.232 735.987 165.232 741.404 Q165.232 746.983 161.76 750.085 Q158.288 753.163 151.968 753.163 Q149.792 753.163 147.524 752.793 Q145.279 752.423 142.871 751.682 L142.871 746.983 Q144.954 748.117 147.177 748.673 Q149.399 749.228 151.876 749.228 Q155.88 749.228 158.218 747.122 Q160.556 745.015 160.556 741.404 Q160.556 737.793 158.218 735.687 Q155.88 733.58 151.876 733.58 Q150.001 733.58 148.126 733.997 Q146.274 734.413 144.329 735.293 L144.329 717.932 Z" fill="#000000" fill-rule="evenodd" fill-opacity="1" /><path clip-path="url(#clip180)" d="M184.445 721.011 Q180.834 721.011 179.005 724.575 Q177.2 728.117 177.2 735.247 Q177.2 742.353 179.005 745.918 Q180.834 749.46 184.445 749.46 Q188.079 749.46 189.885 745.918 Q191.713 742.353 191.713 735.247 Q191.713 728.117 189.885 724.575 Q188.079 721.011 184.445 721.011 M184.445 717.307 Q190.255 717.307 193.311 721.913 Q196.389 726.497 196.389 735.247 Q196.389 743.973 193.311 748.58 Q190.255 753.163 184.445 753.163 Q178.635 753.163 175.556 748.58 Q172.501 743.973 172.501 735.247 Q172.501 726.497 175.556 721.913 Q178.635 717.307 184.445 717.307 Z" fill="#000000" fill-rule="evenodd" fill-opacity="1" /><path clip-path="url(#clip180)" d="M214.607 721.011 Q210.996 721.011 209.167 724.575 Q207.362 728.117 207.362 735.247 Q207.362 742.353 209.167 745.918 Q210.996 749.46 214.607 749.46 Q218.241 749.46 220.047 745.918 Q221.875 742.353 221.875 735.247 Q221.875 728.117 220.047 724.575 Q218.241 721.011 214.607 721.011 M214.607 717.307 Q220.417 717.307 223.473 721.913 Q226.551 726.497 226.551 735.247 Q226.551 743.973 223.473 748.58 Q220.417 753.163 214.607 753.163 Q208.797 753.163 205.718 748.58 Q202.662 743.973 202.662 735.247 Q202.662 726.497 205.718 721.913 Q208.797 717.307 214.607 717.307 Z" fill="#000000" fill-rule="evenodd" fill-opacity="1" /><path clip-path="url(#clip180)" d="M143.103 393.419 L165.325 393.419 L165.325 395.41 L152.778 427.979 L147.894 427.979 L159.7 397.354 L143.103 397.354 L143.103 393.419 Z" fill="#000000" fill-rule="evenodd" fill-opacity="1" /><path clip-path="url(#clip180)" d="M174.491 393.419 L192.848 393.419 L192.848 397.354 L178.774 397.354 L178.774 405.826 Q179.792 405.479 180.811 405.317 Q181.829 405.132 182.848 405.132 Q188.635 405.132 192.014 408.303 Q195.394 411.474 195.394 416.891 Q195.394 422.47 191.922 425.571 Q188.45 428.65 182.13 428.65 Q179.954 428.65 177.686 428.28 Q175.44 427.909 173.033 427.169 L173.033 422.47 Q175.116 423.604 177.339 424.159 Q179.561 424.715 182.038 424.715 Q186.042 424.715 188.38 422.608 Q190.718 420.502 190.718 416.891 Q190.718 413.28 188.38 411.173 Q186.042 409.067 182.038 409.067 Q180.163 409.067 178.288 409.484 Q176.436 409.9 174.491 410.78 L174.491 393.419 Z" fill="#000000" fill-rule="evenodd" fill-opacity="1" /><path clip-path="url(#clip180)" d="M214.607 396.498 Q210.996 396.498 209.167 400.062 Q207.362 403.604 207.362 410.734 Q207.362 417.84 209.167 421.405 Q210.996 424.946 214.607 424.946 Q218.241 424.946 220.047 421.405 Q221.875 417.84 221.875 410.734 Q221.875 403.604 220.047 400.062 Q218.241 396.498 214.607 396.498 M214.607 392.794 Q220.417 392.794 223.473 397.4 Q226.551 401.984 226.551 410.734 Q226.551 419.46 223.473 424.067 Q220.417 428.65 214.607 428.65 Q208.797 428.65 205.718 424.067 Q202.662 419.46 202.662 410.734 Q202.662 401.984 205.718 397.4 Q208.797 392.794 214.607 392.794 Z" fill="#000000" fill-rule="evenodd" fill-opacity="1" /><path clip-path="url(#clip180)" d="M114.931 99.5305 L122.57 99.5305 L122.57 73.1649 L114.26 74.8316 L114.26 70.5723 L122.524 68.9057 L127.2 68.9057 L127.2 99.5305 L134.839 99.5305 L134.839 103.466 L114.931 103.466 L114.931 99.5305 Z" fill="#000000" fill-rule="evenodd" fill-opacity="1" /><path clip-path="url(#clip180)" d="M154.283 71.9844 Q150.672 71.9844 148.843 75.5492 Q147.038 79.0908 147.038 86.2204 Q147.038 93.3268 148.843 96.8916 Q150.672 100.433 154.283 100.433 Q157.917 100.433 159.723 96.8916 Q161.552 93.3268 161.552 86.2204 Q161.552 79.0908 159.723 75.5492 Q157.917 71.9844 154.283 71.9844 M154.283 68.2807 Q160.093 68.2807 163.149 72.8871 Q166.227 77.4704 166.227 86.2204 Q166.227 94.9472 163.149 99.5537 Q160.093 104.137 154.283 104.137 Q148.473 104.137 145.394 99.5537 Q142.339 94.9472 142.339 86.2204 Q142.339 77.4704 145.394 72.8871 Q148.473 68.2807 154.283 68.2807 Z" fill="#000000" fill-rule="evenodd" fill-opacity="1" /><path clip-path="url(#clip180)" d="M184.445 71.9844 Q180.834 71.9844 179.005 75.5492 Q177.2 79.0908 177.2 86.2204 Q177.2 93.3268 179.005 96.8916 Q180.834 100.433 184.445 100.433 Q188.079 100.433 189.885 96.8916 Q191.713 93.3268 191.713 86.2204 Q191.713 79.0908 189.885 75.5492 Q188.079 71.9844 184.445 71.9844 M184.445 68.2807 Q190.255 68.2807 193.311 72.8871 Q196.389 77.4704 196.389 86.2204 Q196.389 94.9472 193.311 99.5537 Q190.255 104.137 184.445 104.137 Q178.635 104.137 175.556 99.5537 Q172.501 94.9472 172.501 86.2204 Q172.501 77.4704 175.556 72.8871 Q178.635 68.2807 184.445 68.2807 Z" fill="#000000" fill-rule="evenodd" fill-opacity="1" /><path clip-path="url(#clip180)" d="M214.607 71.9844 Q210.996 71.9844 209.167 75.5492 Q207.362 79.0908 207.362 86.2204 Q207.362 93.3268 209.167 96.8916 Q210.996 100.433 214.607 100.433 Q218.241 100.433 220.047 96.8916 Q221.875 93.3268 221.875 86.2204 Q221.875 79.0908 220.047 75.5492 Q218.241 71.9844 214.607 71.9844 M214.607 68.2807 Q220.417 68.2807 223.473 72.8871 Q226.551 77.4704 226.551 86.2204 Q226.551 94.9472 223.473 99.5537 Q220.417 104.137 214.607 104.137 Q208.797 104.137 205.718 99.5537 Q202.662 94.9472 202.662 86.2204 Q202.662 77.4704 205.718 72.8871 Q208.797 68.2807 214.607 68.2807 Z" fill="#000000" fill-rule="evenodd" fill-opacity="1" /><path clip-path="url(#clip180)" d="M21.7677 964.027 L39.6235 964.027 L39.6235 955.943 Q39.6235 951.455 37.3 949.004 Q34.9765 946.553 30.6797 946.553 Q26.4147 946.553 24.0912 949.004 Q21.7677 951.455 21.7677 955.943 L21.7677 964.027 M16.4842 970.457 L16.4842 955.943 Q16.4842 947.954 20.1126 943.88 Q23.7092 939.774 30.6797 939.774 Q37.7138 939.774 41.3104 943.88 Q44.907 947.954 44.907 955.943 L44.907 964.027 L64.0042 964.027 L64.0042 970.457 L16.4842 970.457 Z" fill="#000000" fill-rule="evenodd" fill-opacity="1" /><path clip-path="url(#clip180)" d="M33.8307 911.892 Q33.2578 912.879 33.0032 914.056 Q32.7167 915.202 32.7167 916.603 Q32.7167 921.568 35.9632 924.242 Q39.1779 926.883 45.2253 926.883 L64.0042 926.883 L64.0042 932.772 L28.3562 932.772 L28.3562 926.883 L33.8944 926.883 Q30.6479 925.037 29.0883 922.077 Q27.4968 919.117 27.4968 914.884 Q27.4968 914.279 27.5923 913.547 Q27.656 912.815 27.8151 911.924 L33.8307 911.892 Z" fill="#000000" fill-rule="evenodd" fill-opacity="1" /><path clip-path="url(#clip180)" d="M44.7161 876.69 L47.5806 876.69 L47.5806 903.617 Q53.6281 903.235 56.8109 899.988 Q59.9619 896.71 59.9619 890.885 Q59.9619 887.511 59.1344 884.36 Q58.3069 881.178 56.6518 878.058 L62.1899 878.058 Q63.5267 881.209 64.227 884.52 Q64.9272 887.83 64.9272 891.235 Q64.9272 899.765 59.9619 904.763 Q54.9967 909.728 46.5303 909.728 Q37.7774 909.728 32.6531 905.017 Q27.4968 900.275 27.4968 892.254 Q27.4968 885.061 32.1438 880.891 Q36.7589 876.69 44.7161 876.69 M42.9973 882.546 Q38.1912 882.61 35.3266 885.252 Q32.4621 887.862 32.4621 892.19 Q32.4621 897.092 35.2312 900.052 Q38.0002 902.98 43.0292 903.426 L42.9973 882.546 Z" fill="#000000" fill-rule="evenodd" fill-opacity="1" /><path clip-path="url(#clip180)" d="M29.4065 844.352 L34.9447 844.352 Q33.6716 846.835 33.035 849.508 Q32.3984 852.182 32.3984 855.046 Q32.3984 859.407 33.7352 861.603 Q35.072 863.767 37.7456 863.767 Q39.7826 863.767 40.9603 862.208 Q42.1061 860.648 43.1565 855.938 L43.6021 853.932 Q44.9389 847.694 47.3897 845.084 Q49.8086 842.442 54.1691 842.442 Q59.1344 842.442 62.0308 846.389 Q64.9272 850.304 64.9272 857.179 Q64.9272 860.043 64.3543 863.163 Q63.8132 866.25 62.6992 869.688 L56.6518 869.688 Q58.3387 866.441 59.198 863.29 Q60.0256 860.139 60.0256 857.052 Q60.0256 852.914 58.6251 850.686 Q57.1929 848.458 54.6147 848.458 Q52.2276 848.458 50.9545 850.081 Q49.6813 851.673 48.5037 857.115 L48.0262 859.152 Q46.8804 864.595 44.5251 867.014 Q42.138 869.433 38.0002 869.433 Q32.9713 869.433 30.2341 865.868 Q27.4968 862.303 27.4968 855.747 Q27.4968 852.5 27.9743 849.636 Q28.4517 846.771 29.4065 844.352 Z" fill="#000000" fill-rule="evenodd" fill-opacity="1" /><path clip-path="url(#clip180)" d="M29.4065 810.391 L34.9447 810.391 Q33.6716 812.874 33.035 815.547 Q32.3984 818.221 32.3984 821.085 Q32.3984 825.446 33.7352 827.642 Q35.072 829.806 37.7456 829.806 Q39.7826 829.806 40.9603 828.247 Q42.1061 826.687 43.1565 821.977 L43.6021 819.971 Q44.9389 813.733 47.3897 811.123 Q49.8086 808.481 54.1691 808.481 Q59.1344 808.481 62.0308 812.428 Q64.9272 816.343 64.9272 823.218 Q64.9272 826.082 64.3543 829.202 Q63.8132 832.289 62.6992 835.726 L56.6518 835.726 Q58.3387 832.48 59.198 829.329 Q60.0256 826.178 60.0256 823.091 Q60.0256 818.953 58.6251 816.725 Q57.1929 814.497 54.6147 814.497 Q52.2276 814.497 50.9545 816.12 Q49.6813 817.712 48.5037 823.154 L48.0262 825.191 Q46.8804 830.634 44.5251 833.053 Q42.138 835.472 38.0002 835.472 Q32.9713 835.472 30.2341 831.907 Q27.4968 828.342 27.4968 821.786 Q27.4968 818.539 27.9743 815.675 Q28.4517 812.81 29.4065 810.391 Z" fill="#000000" fill-rule="evenodd" fill-opacity="1" /><path clip-path="url(#clip180)" d="M49.9359 799.76 L28.3562 799.76 L28.3562 793.904 L49.7131 793.904 Q54.7739 793.904 57.3202 791.93 Q59.8346 789.957 59.8346 786.01 Q59.8346 781.268 56.8109 778.531 Q53.7872 775.762 48.5673 775.762 L28.3562 775.762 L28.3562 769.905 L64.0042 769.905 L64.0042 775.762 L58.5296 775.762 Q61.7762 777.894 63.3676 780.727 Q64.9272 783.528 64.9272 787.252 Q64.9272 793.395 61.1078 796.577 Q57.2883 799.76 49.9359 799.76 M27.4968 785.024 L27.4968 785.024 Z" fill="#000000" fill-rule="evenodd" fill-opacity="1" /><path clip-path="url(#clip180)" d="M33.8307 737.185 Q33.2578 738.172 33.0032 739.35 Q32.7167 740.496 32.7167 741.896 Q32.7167 746.861 35.9632 749.535 Q39.1779 752.177 45.2253 752.177 L64.0042 752.177 L64.0042 758.065 L28.3562 758.065 L28.3562 752.177 L33.8944 752.177 Q30.6479 750.331 29.0883 747.37 Q27.4968 744.41 27.4968 740.177 Q27.4968 739.572 27.5923 738.84 Q27.656 738.108 27.8151 737.217 L33.8307 737.185 Z" fill="#000000" fill-rule="evenodd" fill-opacity="1" /><path clip-path="url(#clip180)" d="M44.7161 701.983 L47.5806 701.983 L47.5806 728.91 Q53.6281 728.528 56.8109 725.281 Q59.9619 722.003 59.9619 716.179 Q59.9619 712.805 59.1344 709.654 Q58.3069 706.471 56.6518 703.352 L62.1899 703.352 Q63.5267 706.503 64.227 709.813 Q64.9272 713.123 64.9272 716.529 Q64.9272 725.059 59.9619 730.056 Q54.9967 735.021 46.5303 735.021 Q37.7774 735.021 32.6531 730.31 Q27.4968 725.568 27.4968 717.547 Q27.4968 710.354 32.1438 706.184 Q36.7589 701.983 44.7161 701.983 M42.9973 707.839 Q38.1912 707.903 35.3266 710.545 Q32.4621 713.155 32.4621 717.483 Q32.4621 722.385 35.2312 725.345 Q38.0002 728.273 43.0292 728.719 L42.9973 707.839 Z" fill="#000000" fill-rule="evenodd" fill-opacity="1" /><path clip-path="url(#clip180)" d="M14.5426 657.582 Q21.8632 661.847 29.0246 663.916 Q36.186 665.985 43.5384 665.985 Q50.8908 665.985 58.1159 663.916 Q65.3091 661.815 72.5979 657.582 L72.5979 662.675 Q65.1182 667.449 57.8931 669.836 Q50.668 672.191 43.5384 672.191 Q36.4406 672.191 29.2474 669.836 Q22.0542 667.481 14.5426 662.675 L14.5426 657.582 Z" fill="#000000" fill-rule="evenodd" fill-opacity="1" /><path clip-path="url(#clip180)" d="M16.4842 645.965 L16.4842 636.384 L48.8219 624.258 L16.4842 612.067 L16.4842 602.487 L64.0042 602.487 L64.0042 608.757 L22.277 608.757 L54.8694 621.011 L54.8694 627.472 L22.277 639.726 L64.0042 639.726 L64.0042 645.965 L16.4842 645.965 Z" fill="#000000" fill-rule="evenodd" fill-opacity="1" /><path clip-path="url(#clip180)" d="M21.7677 583.294 L39.6235 583.294 L39.6235 575.21 Q39.6235 570.722 37.3 568.271 Q34.9765 565.821 30.6797 565.821 Q26.4147 565.821 24.0912 568.271 Q21.7677 570.722 21.7677 575.21 L21.7677 583.294 M16.4842 589.724 L16.4842 575.21 Q16.4842 567.221 20.1126 563.147 Q23.7092 559.041 30.6797 559.041 Q37.7138 559.041 41.3104 563.147 Q44.907 567.221 44.907 575.21 L44.907 583.294 L64.0042 583.294 L64.0042 589.724 L16.4842 589.724 Z" fill="#000000" fill-rule="evenodd" fill-opacity="1" /><path clip-path="url(#clip180)" d="M46.0847 537.398 Q46.0847 544.495 47.7079 547.233 Q49.3312 549.97 53.2461 549.97 Q56.3653 549.97 58.2114 547.933 Q60.0256 545.864 60.0256 542.331 Q60.0256 537.461 56.5881 534.533 Q53.1188 531.573 47.3897 531.573 L46.0847 531.573 L46.0847 537.398 M43.6657 525.717 L64.0042 525.717 L64.0042 531.573 L58.5933 531.573 Q61.8398 533.578 63.3994 536.57 Q64.9272 539.562 64.9272 543.891 Q64.9272 549.365 61.8716 552.612 Q58.7843 555.826 53.6281 555.826 Q47.6125 555.826 44.5569 551.816 Q41.5014 547.774 41.5014 539.785 L41.5014 531.573 L40.9285 531.573 Q36.8862 531.573 34.6901 534.247 Q32.4621 536.888 32.4621 541.694 Q32.4621 544.75 33.1941 547.646 Q33.9262 550.543 35.3903 553.216 L29.9795 553.216 Q28.7381 550.002 28.1334 546.978 Q27.4968 543.954 27.4968 541.09 Q27.4968 533.355 31.5072 529.536 Q35.5176 525.717 43.6657 525.717 Z" fill="#000000" fill-rule="evenodd" fill-opacity="1" /><path clip-path="url(#clip180)" d="M14.5426 514.577 L14.5426 509.484 Q22.0542 504.71 29.2474 502.354 Q36.4406 499.967 43.5384 499.967 Q50.668 499.967 57.8931 502.354 Q65.1182 504.71 72.5979 509.484 L72.5979 514.577 Q65.3091 510.343 58.1159 508.275 Q50.8908 506.174 43.5384 506.174 Q36.186 506.174 29.0246 508.275 Q21.8632 510.343 14.5426 514.577 Z" fill="#000000" fill-rule="evenodd" fill-opacity="1" /><polyline clip-path="url(#clip182)" style="stroke:#ff0000; stroke-linecap:butt; stroke-linejoin:round; stroke-width:4; stroke-opacity:1; fill:none" stroke-dasharray="2, 4" points="
  321.708,1384.24 412.288,1377.75 506.225,1371.26 600.466,1364.77 691.447,1358.28 776.175,1351.79 852.999,1345.3 921.565,1338.81 
  982.381,1332.32 1036.35,1325.83 1084.42,1319.34 1127.5,1312.85 1166.37,1306.36 1201.68,1299.86 1233.97,1293.37 1263.67,1286.88 1291.14,1280.39 1316.68,1273.9 
  1340.53,1267.41 1362.88,1260.92 1383.92,1254.43 1403.78,1247.94 1422.59,1241.45 1440.48,1234.96 1457.44,1228.47 1473.73,1221.98 1489.25,1215.49 1504.12,1209 
  1518.43,1202.51 1532.08,1196.02 1545.4,1189.53 1558.06,1183.04 1570.39,1176.55 1582.39,1170.06 1593.95,1163.57 1605.07,1157.08 1615.97,1150.59 1626.43,1144.1 
  1636.78,1137.61 1646.69,1131.12 1656.38,1124.63 1665.84,1118.14 1675.09,1111.65 1684.12,1105.16 1692.93,1098.67 1701.51,1092.18 1709.88,1085.69 1718.14,1079.2 
  1726.18,1072.71 1734.1,1066.22 1741.81,1059.73 1749.3,1053.23 1756.78,1046.74 1764.05,1040.25 1771.2,1033.76 1778.25,1027.27 1785.08,1020.78 1791.9,1014.29 
  1798.51,1007.8 1805.11,1001.31 1811.5,994.822 1817.88,988.332 1824.05,981.842 1830.21,975.352 1836.27,968.861 1842.21,962.371 1848.16,955.881 1853.88,949.391 
  1859.61,942.9 1865.22,936.41 1870.73,929.92 1876.23,923.43 1881.63,916.939 1886.91,910.449 1892.2,903.959 1897.37,897.469 1902.55,890.978 1907.61,884.488 
  1912.56,877.998 1917.52,871.507 1922.47,865.017 1927.21,858.527 1932.05,852.037 1936.78,845.546 1941.41,839.056 1946.03,832.566 1950.55,826.076 1955.06,819.585 
  1959.57,813.095 1963.98,806.605 1968.38,800.115 1972.68,793.624 1976.97,787.134 1981.15,780.644 1985.45,774.154 1989.52,767.663 1993.7,761.173 1997.78,754.683 
  2001.85,748.192 2005.81,741.702 2009.78,735.212 2013.74,728.722 2017.59,722.231 2021.45,715.741 2025.3,709.251 2029.04,702.761 2032.79,696.27 2036.53,689.78 
  2040.27,683.29 2043.91,676.8 2047.54,670.309 2051.17,663.819 2054.7,657.329 2058.33,650.839 2061.85,644.348 2065.26,637.858 2068.79,631.368 2072.2,624.877 
  2075.61,618.387 2079.03,611.897 2082.33,605.407 2085.74,598.916 2089.04,592.426 2092.24,585.936 2095.54,579.446 2098.73,572.955 2102.04,566.465 2105.23,559.975 
  2108.31,553.485 2111.5,546.994 2114.59,540.504 2117.78,534.014 2120.86,527.524 2123.83,521.033 2126.92,514.543 2130,508.053 2132.97,501.563 2135.94,495.072 
  2138.92,488.582 2141.89,482.092 2144.75,475.601 2147.72,469.111 2150.59,462.621 2153.45,456.131 2156.31,449.64 2159.17,443.15 2161.93,436.66 2164.79,430.17 
  2167.54,423.679 2170.29,417.189 2173.05,410.699 2175.8,404.209 2178.55,397.718 2181.19,391.228 2183.95,384.738 2186.59,378.248 2189.23,371.757 2191.87,365.267 
  2194.51,358.777 2197.16,352.286 2199.69,345.796 2202.33,339.306 2204.86,332.816 2207.4,326.325 2209.93,319.835 2212.46,313.345 2214.99,306.855 2217.52,300.364 
  2220.06,293.874 2222.48,287.384 2225.01,280.894 2227.43,274.403 2229.85,267.913 2232.28,261.423 2234.7,254.933 2237.12,248.442 2239.54,241.952 2241.86,235.462 
  2244.28,228.971 2246.59,222.481 2248.9,215.991 2251.32,209.501 2253.64,203.01 2255.95,196.52 2258.26,190.03 2260.46,183.54 2262.77,177.049 2265.08,170.559 
  2267.29,164.069 2269.6,157.579 2271.8,151.088 2274,144.598 2276.2,138.108 2278.41,131.618 2280.61,125.127 2282.81,118.637 2285.01,112.147 2287.21,105.656 
  2289.31,99.1662 2291.51,92.6759 2293.6,86.1857 
  "/>
<line clip-path="url(#clip182)" x1="412.288" y1="1377.75" x2="412.288" y2="1369.75" style="stroke:#0000ff; stroke-width:3.2; stroke-opacity:1"/>
<line clip-path="url(#clip182)" x1="412.288" y1="1377.75" x2="404.288" y2="1377.75" style="stroke:#0000ff; stroke-width:3.2; stroke-opacity:1"/>
<line clip-path="url(#clip182)" x1="412.288" y1="1377.75" x2="412.288" y2="1385.75" style="stroke:#0000ff; stroke-width:3.2; stroke-opacity:1"/>
<line clip-path="url(#clip182)" x1="412.288" y1="1377.75" x2="420.288" y2="1377.75" style="stroke:#0000ff; stroke-width:3.2; stroke-opacity:1"/>
<line clip-path="url(#clip182)" x1="691.447" y1="1358.42" x2="691.447" y2="1350.42" style="stroke:#0000ff; stroke-width:3.2; stroke-opacity:1"/>
<line clip-path="url(#clip182)" x1="691.447" y1="1358.42" x2="683.447" y2="1358.42" style="stroke:#0000ff; stroke-width:3.2; stroke-opacity:1"/>
<line clip-path="url(#clip182)" x1="691.447" y1="1358.42" x2="691.447" y2="1366.42" style="stroke:#0000ff; stroke-width:3.2; stroke-opacity:1"/>
<line clip-path="url(#clip182)" x1="691.447" y1="1358.42" x2="699.447" y2="1358.42" style="stroke:#0000ff; stroke-width:3.2; stroke-opacity:1"/>
<line clip-path="url(#clip182)" x1="1036.35" y1="1326" x2="1036.35" y2="1318" style="stroke:#0000ff; stroke-width:3.2; stroke-opacity:1"/>
<line clip-path="url(#clip182)" x1="1036.35" y1="1326" x2="1028.35" y2="1326" style="stroke:#0000ff; stroke-width:3.2; stroke-opacity:1"/>
<line clip-path="url(#clip182)" x1="1036.35" y1="1326" x2="1036.35" y2="1334" style="stroke:#0000ff; stroke-width:3.2; stroke-opacity:1"/>
<line clip-path="url(#clip182)" x1="1036.35" y1="1326" x2="1044.35" y2="1326" style="stroke:#0000ff; stroke-width:3.2; stroke-opacity:1"/>
<line clip-path="url(#clip182)" x1="1233.97" y1="1292.81" x2="1233.97" y2="1284.81" style="stroke:#0000ff; stroke-width:3.2; stroke-opacity:1"/>
<line clip-path="url(#clip182)" x1="1233.97" y1="1292.81" x2="1225.97" y2="1292.81" style="stroke:#0000ff; stroke-width:3.2; stroke-opacity:1"/>
<line clip-path="url(#clip182)" x1="1233.97" y1="1292.81" x2="1233.97" y2="1300.81" style="stroke:#0000ff; stroke-width:3.2; stroke-opacity:1"/>
<line clip-path="url(#clip182)" x1="1233.97" y1="1292.81" x2="1241.97" y2="1292.81" style="stroke:#0000ff; stroke-width:3.2; stroke-opacity:1"/>
<line clip-path="url(#clip182)" x1="1362.88" y1="1259.07" x2="1362.88" y2="1251.07" style="stroke:#0000ff; stroke-width:3.2; stroke-opacity:1"/>
<line clip-path="url(#clip182)" x1="1362.88" y1="1259.07" x2="1354.88" y2="1259.07" style="stroke:#0000ff; stroke-width:3.2; stroke-opacity:1"/>
<line clip-path="url(#clip182)" x1="1362.88" y1="1259.07" x2="1362.88" y2="1267.07" style="stroke:#0000ff; stroke-width:3.2; stroke-opacity:1"/>
<line clip-path="url(#clip182)" x1="1362.88" y1="1259.07" x2="1370.88" y2="1259.07" style="stroke:#0000ff; stroke-width:3.2; stroke-opacity:1"/>
<line clip-path="url(#clip182)" x1="1457.44" y1="1225.57" x2="1457.44" y2="1217.57" style="stroke:#0000ff; stroke-width:3.2; stroke-opacity:1"/>
<line clip-path="url(#clip182)" x1="1457.44" y1="1225.57" x2="1449.44" y2="1225.57" style="stroke:#0000ff; stroke-width:3.2; stroke-opacity:1"/>
<line clip-path="url(#clip182)" x1="1457.44" y1="1225.57" x2="1457.44" y2="1233.57" style="stroke:#0000ff; stroke-width:3.2; stroke-opacity:1"/>
<line clip-path="url(#clip182)" x1="1457.44" y1="1225.57" x2="1465.44" y2="1225.57" style="stroke:#0000ff; stroke-width:3.2; stroke-opacity:1"/>
<line clip-path="url(#clip182)" x1="1532.08" y1="1191.23" x2="1532.08" y2="1183.23" style="stroke:#0000ff; stroke-width:3.2; stroke-opacity:1"/>
<line clip-path="url(#clip182)" x1="1532.08" y1="1191.23" x2="1524.08" y2="1191.23" style="stroke:#0000ff; stroke-width:3.2; stroke-opacity:1"/>
<line clip-path="url(#clip182)" x1="1532.08" y1="1191.23" x2="1532.08" y2="1199.23" style="stroke:#0000ff; stroke-width:3.2; stroke-opacity:1"/>
<line clip-path="url(#clip182)" x1="1532.08" y1="1191.23" x2="1540.08" y2="1191.23" style="stroke:#0000ff; stroke-width:3.2; stroke-opacity:1"/>
<line clip-path="url(#clip182)" x1="1593.95" y1="1157.04" x2="1593.95" y2="1149.04" style="stroke:#0000ff; stroke-width:3.2; stroke-opacity:1"/>
<line clip-path="url(#clip182)" x1="1593.95" y1="1157.04" x2="1585.95" y2="1157.04" style="stroke:#0000ff; stroke-width:3.2; stroke-opacity:1"/>
<line clip-path="url(#clip182)" x1="1593.95" y1="1157.04" x2="1593.95" y2="1165.04" style="stroke:#0000ff; stroke-width:3.2; stroke-opacity:1"/>
<line clip-path="url(#clip182)" x1="1593.95" y1="1157.04" x2="1601.95" y2="1157.04" style="stroke:#0000ff; stroke-width:3.2; stroke-opacity:1"/>
<line clip-path="url(#clip182)" x1="1646.69" y1="1122.61" x2="1646.69" y2="1114.61" style="stroke:#0000ff; stroke-width:3.2; stroke-opacity:1"/>
<line clip-path="url(#clip182)" x1="1646.69" y1="1122.61" x2="1638.69" y2="1122.61" style="stroke:#0000ff; stroke-width:3.2; stroke-opacity:1"/>
<line clip-path="url(#clip182)" x1="1646.69" y1="1122.61" x2="1646.69" y2="1130.61" style="stroke:#0000ff; stroke-width:3.2; stroke-opacity:1"/>
<line clip-path="url(#clip182)" x1="1646.69" y1="1122.61" x2="1654.69" y2="1122.61" style="stroke:#0000ff; stroke-width:3.2; stroke-opacity:1"/>
<line clip-path="url(#clip182)" x1="1692.93" y1="1088.25" x2="1692.93" y2="1080.25" style="stroke:#0000ff; stroke-width:3.2; stroke-opacity:1"/>
<line clip-path="url(#clip182)" x1="1692.93" y1="1088.25" x2="1684.93" y2="1088.25" style="stroke:#0000ff; stroke-width:3.2; stroke-opacity:1"/>
<line clip-path="url(#clip182)" x1="1692.93" y1="1088.25" x2="1692.93" y2="1096.25" style="stroke:#0000ff; stroke-width:3.2; stroke-opacity:1"/>
<line clip-path="url(#clip182)" x1="1692.93" y1="1088.25" x2="1700.93" y2="1088.25" style="stroke:#0000ff; stroke-width:3.2; stroke-opacity:1"/>
<line clip-path="url(#clip182)" x1="1734.1" y1="1054" x2="1734.1" y2="1046" style="stroke:#0000ff; stroke-width:3.2; stroke-opacity:1"/>
<line clip-path="url(#clip182)" x1="1734.1" y1="1054" x2="1726.1" y2="1054" style="stroke:#0000ff; stroke-width:3.2; stroke-opacity:1"/>
<line clip-path="url(#clip182)" x1="1734.1" y1="1054" x2="1734.1" y2="1062" style="stroke:#0000ff; stroke-width:3.2; stroke-opacity:1"/>
<line clip-path="url(#clip182)" x1="1734.1" y1="1054" x2="1742.1" y2="1054" style="stroke:#0000ff; stroke-width:3.2; stroke-opacity:1"/>
<line clip-path="url(#clip182)" x1="1771.2" y1="1019.34" x2="1771.2" y2="1011.34" style="stroke:#0000ff; stroke-width:3.2; stroke-opacity:1"/>
<line clip-path="url(#clip182)" x1="1771.2" y1="1019.34" x2="1763.2" y2="1019.34" style="stroke:#0000ff; stroke-width:3.2; stroke-opacity:1"/>
<line clip-path="url(#clip182)" x1="1771.2" y1="1019.34" x2="1771.2" y2="1027.34" style="stroke:#0000ff; stroke-width:3.2; stroke-opacity:1"/>
<line clip-path="url(#clip182)" x1="1771.2" y1="1019.34" x2="1779.2" y2="1019.34" style="stroke:#0000ff; stroke-width:3.2; stroke-opacity:1"/>
<line clip-path="url(#clip182)" x1="1805.11" y1="985.184" x2="1805.11" y2="977.184" style="stroke:#0000ff; stroke-width:3.2; stroke-opacity:1"/>
<line clip-path="url(#clip182)" x1="1805.11" y1="985.184" x2="1797.11" y2="985.184" style="stroke:#0000ff; stroke-width:3.2; stroke-opacity:1"/>
<line clip-path="url(#clip182)" x1="1805.11" y1="985.184" x2="1805.11" y2="993.184" style="stroke:#0000ff; stroke-width:3.2; stroke-opacity:1"/>
<line clip-path="url(#clip182)" x1="1805.11" y1="985.184" x2="1813.11" y2="985.184" style="stroke:#0000ff; stroke-width:3.2; stroke-opacity:1"/>
<line clip-path="url(#clip182)" x1="1836.27" y1="951.27" x2="1836.27" y2="943.27" style="stroke:#0000ff; stroke-width:3.2; stroke-opacity:1"/>
<line clip-path="url(#clip182)" x1="1836.27" y1="951.27" x2="1828.27" y2="951.27" style="stroke:#0000ff; stroke-width:3.2; stroke-opacity:1"/>
<line clip-path="url(#clip182)" x1="1836.27" y1="951.27" x2="1836.27" y2="959.27" style="stroke:#0000ff; stroke-width:3.2; stroke-opacity:1"/>
<line clip-path="url(#clip182)" x1="1836.27" y1="951.27" x2="1844.27" y2="951.27" style="stroke:#0000ff; stroke-width:3.2; stroke-opacity:1"/>
<line clip-path="url(#clip182)" x1="1865.22" y1="916.455" x2="1865.22" y2="908.455" style="stroke:#0000ff; stroke-width:3.2; stroke-opacity:1"/>
<line clip-path="url(#clip182)" x1="1865.22" y1="916.455" x2="1857.22" y2="916.455" style="stroke:#0000ff; stroke-width:3.2; stroke-opacity:1"/>
<line clip-path="url(#clip182)" x1="1865.22" y1="916.455" x2="1865.22" y2="924.455" style="stroke:#0000ff; stroke-width:3.2; stroke-opacity:1"/>
<line clip-path="url(#clip182)" x1="1865.22" y1="916.455" x2="1873.22" y2="916.455" style="stroke:#0000ff; stroke-width:3.2; stroke-opacity:1"/>
<line clip-path="url(#clip182)" x1="1892.2" y1="882.351" x2="1892.2" y2="874.351" style="stroke:#0000ff; stroke-width:3.2; stroke-opacity:1"/>
<line clip-path="url(#clip182)" x1="1892.2" y1="882.351" x2="1884.2" y2="882.351" style="stroke:#0000ff; stroke-width:3.2; stroke-opacity:1"/>
<line clip-path="url(#clip182)" x1="1892.2" y1="882.351" x2="1892.2" y2="890.351" style="stroke:#0000ff; stroke-width:3.2; stroke-opacity:1"/>
<line clip-path="url(#clip182)" x1="1892.2" y1="882.351" x2="1900.2" y2="882.351" style="stroke:#0000ff; stroke-width:3.2; stroke-opacity:1"/>
<line clip-path="url(#clip182)" x1="1917.52" y1="847.727" x2="1917.52" y2="839.727" style="stroke:#0000ff; stroke-width:3.2; stroke-opacity:1"/>
<line clip-path="url(#clip182)" x1="1917.52" y1="847.727" x2="1909.52" y2="847.727" style="stroke:#0000ff; stroke-width:3.2; stroke-opacity:1"/>
<line clip-path="url(#clip182)" x1="1917.52" y1="847.727" x2="1917.52" y2="855.727" style="stroke:#0000ff; stroke-width:3.2; stroke-opacity:1"/>
<line clip-path="url(#clip182)" x1="1917.52" y1="847.727" x2="1925.52" y2="847.727" style="stroke:#0000ff; stroke-width:3.2; stroke-opacity:1"/>
<line clip-path="url(#clip182)" x1="1941.41" y1="812.737" x2="1941.41" y2="804.737" style="stroke:#0000ff; stroke-width:3.2; stroke-opacity:1"/>
<line clip-path="url(#clip182)" x1="1941.41" y1="812.737" x2="1933.41" y2="812.737" style="stroke:#0000ff; stroke-width:3.2; stroke-opacity:1"/>
<line clip-path="url(#clip182)" x1="1941.41" y1="812.737" x2="1941.41" y2="820.737" style="stroke:#0000ff; stroke-width:3.2; stroke-opacity:1"/>
<line clip-path="url(#clip182)" x1="1941.41" y1="812.737" x2="1949.41" y2="812.737" style="stroke:#0000ff; stroke-width:3.2; stroke-opacity:1"/>
<line clip-path="url(#clip182)" x1="1963.98" y1="778.566" x2="1963.98" y2="770.566" style="stroke:#0000ff; stroke-width:3.2; stroke-opacity:1"/>
<line clip-path="url(#clip182)" x1="1963.98" y1="778.566" x2="1955.98" y2="778.566" style="stroke:#0000ff; stroke-width:3.2; stroke-opacity:1"/>
<line clip-path="url(#clip182)" x1="1963.98" y1="778.566" x2="1963.98" y2="786.566" style="stroke:#0000ff; stroke-width:3.2; stroke-opacity:1"/>
<line clip-path="url(#clip182)" x1="1963.98" y1="778.566" x2="1971.98" y2="778.566" style="stroke:#0000ff; stroke-width:3.2; stroke-opacity:1"/>
<line clip-path="url(#clip182)" x1="1985.45" y1="743.99" x2="1985.45" y2="735.99" style="stroke:#0000ff; stroke-width:3.2; stroke-opacity:1"/>
<line clip-path="url(#clip182)" x1="1985.45" y1="743.99" x2="1977.45" y2="743.99" style="stroke:#0000ff; stroke-width:3.2; stroke-opacity:1"/>
<line clip-path="url(#clip182)" x1="1985.45" y1="743.99" x2="1985.45" y2="751.99" style="stroke:#0000ff; stroke-width:3.2; stroke-opacity:1"/>
<line clip-path="url(#clip182)" x1="1985.45" y1="743.99" x2="1993.45" y2="743.99" style="stroke:#0000ff; stroke-width:3.2; stroke-opacity:1"/>
<line clip-path="url(#clip182)" x1="2005.81" y1="709.216" x2="2005.81" y2="701.216" style="stroke:#0000ff; stroke-width:3.2; stroke-opacity:1"/>
<line clip-path="url(#clip182)" x1="2005.81" y1="709.216" x2="1997.81" y2="709.216" style="stroke:#0000ff; stroke-width:3.2; stroke-opacity:1"/>
<line clip-path="url(#clip182)" x1="2005.81" y1="709.216" x2="2005.81" y2="717.216" style="stroke:#0000ff; stroke-width:3.2; stroke-opacity:1"/>
<line clip-path="url(#clip182)" x1="2005.81" y1="709.216" x2="2013.81" y2="709.216" style="stroke:#0000ff; stroke-width:3.2; stroke-opacity:1"/>
<line clip-path="url(#clip182)" x1="2025.3" y1="674.419" x2="2025.3" y2="666.419" style="stroke:#0000ff; stroke-width:3.2; stroke-opacity:1"/>
<line clip-path="url(#clip182)" x1="2025.3" y1="674.419" x2="2017.3" y2="674.419" style="stroke:#0000ff; stroke-width:3.2; stroke-opacity:1"/>
<line clip-path="url(#clip182)" x1="2025.3" y1="674.419" x2="2025.3" y2="682.419" style="stroke:#0000ff; stroke-width:3.2; stroke-opacity:1"/>
<line clip-path="url(#clip182)" x1="2025.3" y1="674.419" x2="2033.3" y2="674.419" style="stroke:#0000ff; stroke-width:3.2; stroke-opacity:1"/>
<line clip-path="url(#clip182)" x1="2043.91" y1="641.504" x2="2043.91" y2="633.504" style="stroke:#0000ff; stroke-width:3.2; stroke-opacity:1"/>
<line clip-path="url(#clip182)" x1="2043.91" y1="641.504" x2="2035.91" y2="641.504" style="stroke:#0000ff; stroke-width:3.2; stroke-opacity:1"/>
<line clip-path="url(#clip182)" x1="2043.91" y1="641.504" x2="2043.91" y2="649.504" style="stroke:#0000ff; stroke-width:3.2; stroke-opacity:1"/>
<line clip-path="url(#clip182)" x1="2043.91" y1="641.504" x2="2051.91" y2="641.504" style="stroke:#0000ff; stroke-width:3.2; stroke-opacity:1"/>
<line clip-path="url(#clip182)" x1="2061.85" y1="606.161" x2="2061.85" y2="598.161" style="stroke:#0000ff; stroke-width:3.2; stroke-opacity:1"/>
<line clip-path="url(#clip182)" x1="2061.85" y1="606.161" x2="2053.85" y2="606.161" style="stroke:#0000ff; stroke-width:3.2; stroke-opacity:1"/>
<line clip-path="url(#clip182)" x1="2061.85" y1="606.161" x2="2061.85" y2="614.161" style="stroke:#0000ff; stroke-width:3.2; stroke-opacity:1"/>
<line clip-path="url(#clip182)" x1="2061.85" y1="606.161" x2="2069.85" y2="606.161" style="stroke:#0000ff; stroke-width:3.2; stroke-opacity:1"/>
<line clip-path="url(#clip182)" x1="2079.03" y1="569.866" x2="2079.03" y2="561.866" style="stroke:#0000ff; stroke-width:3.2; stroke-opacity:1"/>
<line clip-path="url(#clip182)" x1="2079.03" y1="569.866" x2="2071.03" y2="569.866" style="stroke:#0000ff; stroke-width:3.2; stroke-opacity:1"/>
<line clip-path="url(#clip182)" x1="2079.03" y1="569.866" x2="2079.03" y2="577.866" style="stroke:#0000ff; stroke-width:3.2; stroke-opacity:1"/>
<line clip-path="url(#clip182)" x1="2079.03" y1="569.866" x2="2087.03" y2="569.866" style="stroke:#0000ff; stroke-width:3.2; stroke-opacity:1"/>
<line clip-path="url(#clip182)" x1="2095.54" y1="536.526" x2="2095.54" y2="528.526" style="stroke:#0000ff; stroke-width:3.2; stroke-opacity:1"/>
<line clip-path="url(#clip182)" x1="2095.54" y1="536.526" x2="2087.54" y2="536.526" style="stroke:#0000ff; stroke-width:3.2; stroke-opacity:1"/>
<line clip-path="url(#clip182)" x1="2095.54" y1="536.526" x2="2095.54" y2="544.526" style="stroke:#0000ff; stroke-width:3.2; stroke-opacity:1"/>
<line clip-path="url(#clip182)" x1="2095.54" y1="536.526" x2="2103.54" y2="536.526" style="stroke:#0000ff; stroke-width:3.2; stroke-opacity:1"/>
<line clip-path="url(#clip182)" x1="2111.5" y1="502.474" x2="2111.5" y2="494.474" style="stroke:#0000ff; stroke-width:3.2; stroke-opacity:1"/>
<line clip-path="url(#clip182)" x1="2111.5" y1="502.474" x2="2103.5" y2="502.474" style="stroke:#0000ff; stroke-width:3.2; stroke-opacity:1"/>
<line clip-path="url(#clip182)" x1="2111.5" y1="502.474" x2="2111.5" y2="510.474" style="stroke:#0000ff; stroke-width:3.2; stroke-opacity:1"/>
<line clip-path="url(#clip182)" x1="2111.5" y1="502.474" x2="2119.5" y2="502.474" style="stroke:#0000ff; stroke-width:3.2; stroke-opacity:1"/>
<line clip-path="url(#clip182)" x1="2126.92" y1="467.495" x2="2126.92" y2="459.495" style="stroke:#0000ff; stroke-width:3.2; stroke-opacity:1"/>
<line clip-path="url(#clip182)" x1="2126.92" y1="467.495" x2="2118.92" y2="467.495" style="stroke:#0000ff; stroke-width:3.2; stroke-opacity:1"/>
<line clip-path="url(#clip182)" x1="2126.92" y1="467.495" x2="2126.92" y2="475.495" style="stroke:#0000ff; stroke-width:3.2; stroke-opacity:1"/>
<line clip-path="url(#clip182)" x1="2126.92" y1="467.495" x2="2134.92" y2="467.495" style="stroke:#0000ff; stroke-width:3.2; stroke-opacity:1"/>
<line clip-path="url(#clip182)" x1="2141.89" y1="432.691" x2="2141.89" y2="424.691" style="stroke:#0000ff; stroke-width:3.2; stroke-opacity:1"/>
<line clip-path="url(#clip182)" x1="2141.89" y1="432.691" x2="2133.89" y2="432.691" style="stroke:#0000ff; stroke-width:3.2; stroke-opacity:1"/>
<line clip-path="url(#clip182)" x1="2141.89" y1="432.691" x2="2141.89" y2="440.691" style="stroke:#0000ff; stroke-width:3.2; stroke-opacity:1"/>
<line clip-path="url(#clip182)" x1="2141.89" y1="432.691" x2="2149.89" y2="432.691" style="stroke:#0000ff; stroke-width:3.2; stroke-opacity:1"/>
<line clip-path="url(#clip182)" x1="2156.31" y1="398.024" x2="2156.31" y2="390.024" style="stroke:#0000ff; stroke-width:3.2; stroke-opacity:1"/>
<line clip-path="url(#clip182)" x1="2156.31" y1="398.024" x2="2148.31" y2="398.024" style="stroke:#0000ff; stroke-width:3.2; stroke-opacity:1"/>
<line clip-path="url(#clip182)" x1="2156.31" y1="398.024" x2="2156.31" y2="406.024" style="stroke:#0000ff; stroke-width:3.2; stroke-opacity:1"/>
<line clip-path="url(#clip182)" x1="2156.31" y1="398.024" x2="2164.31" y2="398.024" style="stroke:#0000ff; stroke-width:3.2; stroke-opacity:1"/>
<line clip-path="url(#clip182)" x1="2170.29" y1="362.218" x2="2170.29" y2="354.218" style="stroke:#0000ff; stroke-width:3.2; stroke-opacity:1"/>
<line clip-path="url(#clip182)" x1="2170.29" y1="362.218" x2="2162.29" y2="362.218" style="stroke:#0000ff; stroke-width:3.2; stroke-opacity:1"/>
<line clip-path="url(#clip182)" x1="2170.29" y1="362.218" x2="2170.29" y2="370.218" style="stroke:#0000ff; stroke-width:3.2; stroke-opacity:1"/>
<line clip-path="url(#clip182)" x1="2170.29" y1="362.218" x2="2178.29" y2="362.218" style="stroke:#0000ff; stroke-width:3.2; stroke-opacity:1"/>
<line clip-path="url(#clip182)" x1="2183.95" y1="328.459" x2="2183.95" y2="320.459" style="stroke:#0000ff; stroke-width:3.2; stroke-opacity:1"/>
<line clip-path="url(#clip182)" x1="2183.95" y1="328.459" x2="2175.95" y2="328.459" style="stroke:#0000ff; stroke-width:3.2; stroke-opacity:1"/>
<line clip-path="url(#clip182)" x1="2183.95" y1="328.459" x2="2183.95" y2="336.459" style="stroke:#0000ff; stroke-width:3.2; stroke-opacity:1"/>
<line clip-path="url(#clip182)" x1="2183.95" y1="328.459" x2="2191.95" y2="328.459" style="stroke:#0000ff; stroke-width:3.2; stroke-opacity:1"/>
<line clip-path="url(#clip182)" x1="2197.16" y1="292.948" x2="2197.16" y2="284.948" style="stroke:#0000ff; stroke-width:3.2; stroke-opacity:1"/>
<line clip-path="url(#clip182)" x1="2197.16" y1="292.948" x2="2189.16" y2="292.948" style="stroke:#0000ff; stroke-width:3.2; stroke-opacity:1"/>
<line clip-path="url(#clip182)" x1="2197.16" y1="292.948" x2="2197.16" y2="300.948" style="stroke:#0000ff; stroke-width:3.2; stroke-opacity:1"/>
<line clip-path="url(#clip182)" x1="2197.16" y1="292.948" x2="2205.16" y2="292.948" style="stroke:#0000ff; stroke-width:3.2; stroke-opacity:1"/>
<line clip-path="url(#clip182)" x1="2212.46" y1="252.759" x2="2212.46" y2="244.759" style="stroke:#0000ff; stroke-width:3.2; stroke-opacity:1"/>
<line clip-path="url(#clip182)" x1="2212.46" y1="252.759" x2="2204.46" y2="252.759" style="stroke:#0000ff; stroke-width:3.2; stroke-opacity:1"/>
<line clip-path="url(#clip182)" x1="2212.46" y1="252.759" x2="2212.46" y2="260.759" style="stroke:#0000ff; stroke-width:3.2; stroke-opacity:1"/>
<line clip-path="url(#clip182)" x1="2212.46" y1="252.759" x2="2220.46" y2="252.759" style="stroke:#0000ff; stroke-width:3.2; stroke-opacity:1"/>
<line clip-path="url(#clip182)" x1="2225.01" y1="218.052" x2="2225.01" y2="210.052" style="stroke:#0000ff; stroke-width:3.2; stroke-opacity:1"/>
<line clip-path="url(#clip182)" x1="2225.01" y1="218.052" x2="2217.01" y2="218.052" style="stroke:#0000ff; stroke-width:3.2; stroke-opacity:1"/>
<line clip-path="url(#clip182)" x1="2225.01" y1="218.052" x2="2225.01" y2="226.052" style="stroke:#0000ff; stroke-width:3.2; stroke-opacity:1"/>
<line clip-path="url(#clip182)" x1="2225.01" y1="218.052" x2="2233.01" y2="218.052" style="stroke:#0000ff; stroke-width:3.2; stroke-opacity:1"/>
<line clip-path="url(#clip182)" x1="2237.12" y1="183.456" x2="2237.12" y2="175.456" style="stroke:#0000ff; stroke-width:3.2; stroke-opacity:1"/>
<line clip-path="url(#clip182)" x1="2237.12" y1="183.456" x2="2229.12" y2="183.456" style="stroke:#0000ff; stroke-width:3.2; stroke-opacity:1"/>
<line clip-path="url(#clip182)" x1="2237.12" y1="183.456" x2="2237.12" y2="191.456" style="stroke:#0000ff; stroke-width:3.2; stroke-opacity:1"/>
<line clip-path="url(#clip182)" x1="2237.12" y1="183.456" x2="2245.12" y2="183.456" style="stroke:#0000ff; stroke-width:3.2; stroke-opacity:1"/>
<line clip-path="url(#clip182)" x1="2248.9" y1="149.165" x2="2248.9" y2="141.165" style="stroke:#0000ff; stroke-width:3.2; stroke-opacity:1"/>
<line clip-path="url(#clip182)" x1="2248.9" y1="149.165" x2="2240.9" y2="149.165" style="stroke:#0000ff; stroke-width:3.2; stroke-opacity:1"/>
<line clip-path="url(#clip182)" x1="2248.9" y1="149.165" x2="2248.9" y2="157.165" style="stroke:#0000ff; stroke-width:3.2; stroke-opacity:1"/>
<line clip-path="url(#clip182)" x1="2248.9" y1="149.165" x2="2256.9" y2="149.165" style="stroke:#0000ff; stroke-width:3.2; stroke-opacity:1"/>
<line clip-path="url(#clip182)" x1="2260.46" y1="113.503" x2="2260.46" y2="105.503" style="stroke:#0000ff; stroke-width:3.2; stroke-opacity:1"/>
<line clip-path="url(#clip182)" x1="2260.46" y1="113.503" x2="2252.46" y2="113.503" style="stroke:#0000ff; stroke-width:3.2; stroke-opacity:1"/>
<line clip-path="url(#clip182)" x1="2260.46" y1="113.503" x2="2260.46" y2="121.503" style="stroke:#0000ff; stroke-width:3.2; stroke-opacity:1"/>
<line clip-path="url(#clip182)" x1="2260.46" y1="113.503" x2="2268.46" y2="113.503" style="stroke:#0000ff; stroke-width:3.2; stroke-opacity:1"/>
</svg>
