<?xml version="1.0" encoding="utf-8"?>
<svg xmlns="http://www.w3.org/2000/svg" xmlns:xlink="http://www.w3.org/1999/xlink" width="600" height="400" viewBox="0 0 2400 1600">
<defs>
  <clipPath id="clip120">
    <rect x="0" y="0" width="2400" height="1600"/>
  </clipPath>
</defs>
<path clip-path="url(#clip120)" d="
M0 1600 L2400 1600 L2400 0 L0 0  Z
  " fill="#ffffff" fill-rule="evenodd" fill-opacity="1"/>
<defs>
  <clipPath id="clip121">
    <rect x="480" y="0" width="1681" height="1600"/>
  </clipPath>
</defs>
<path clip-path="url(#clip120)" d="
M205.121 1423.18 L2352.76 1423.18 L2352.76 47.2441 L205.121 47.2441  Z
  " fill="#ffffff" fill-rule="evenodd" fill-opacity="1"/>
<defs>
  <clipPath id="clip122">
    <rect x="205" y="47" width="2149" height="1377"/>
  </clipPath>
</defs>
<polyline clip-path="url(#clip122)" style="stroke:#000000; stroke-linecap:butt; stroke-linejoin:round; stroke-width:2; stroke-opacity:0.1; fill:none" points="
  543.677,1423.18 543.677,47.2441 
  "/>
<polyline clip-path="url(#clip122)" style="stroke:#000000; stroke-linecap:butt; stroke-linejoin:round; stroke-width:2; stroke-opacity:0.1; fill:none" points="
  886.48,1423.18 886.48,47.2441 
  "/>
<polyline clip-path="url(#clip122)" style="stroke:#000000; stroke-linecap:butt; stroke-linejoin:round; stroke-width:2; stroke-opacity:0.1; fill:none" points="
  1229.28,1423.18 1229.28,47.2441 
  "/>
<polyline clip-path="url(#clip122)" style="stroke:#000000; stroke-linecap:butt; stroke-linejoin:round; stroke-width:2; stroke-opacity:0.1; fill:none" points="
  1572.09,1423.18 1572.09,47.2441 
  "/>
<polyline clip-path="url(#clip122)" style="stroke:#000000; stroke-linecap:butt; stroke-linejoin:round; stroke-width:2; stroke-opacity:0.1; fill:none" points="
  1914.89,1423.18 1914.89,47.2441 
  "/>
<polyline clip-path="url(#clip122)" style="stroke:#000000; stroke-linecap:butt; stroke-linejoin:round; stroke-width:2; stroke-opacity:0.1; fill:none" points="
  2257.69,1423.18 2257.69,47.2441 
  "/>
<polyline clip-path="url(#clip120)" style="stroke:#000000; stroke-linecap:butt; stroke-linejoin:round; stroke-width:4; stroke-opacity:1; fill:none" points="
  205.121,1423.18 2352.76,1423.18 
  "/>
<polyline clip-path="url(#clip120)" style="stroke:#000000; stroke-linecap:butt; stroke-linejoin:round; stroke-width:4; stroke-opacity:1; fill:none" points="
  543.677,1423.18 543.677,1404.28 
  "/>
<polyline clip-path="url(#clip120)" style="stroke:#000000; stroke-linecap:butt; stroke-linejoin:round; stroke-width:4; stroke-opacity:1; fill:none" points="
  886.48,1423.18 886.48,1404.28 
  "/>
<polyline clip-path="url(#clip120)" style="stroke:#000000; stroke-linecap:butt; stroke-linejoin:round; stroke-width:4; stroke-opacity:1; fill:none" points="
  1229.28,1423.18 1229.28,1404.28 
  "/>
<polyline clip-path="url(#clip120)" style="stroke:#000000; stroke-linecap:butt; stroke-linejoin:round; stroke-width:4; stroke-opacity:1; fill:none" points="
  1572.09,1423.18 1572.09,1404.28 
  "/>
<polyline clip-path="url(#clip120)" style="stroke:#000000; stroke-linecap:butt; stroke-linejoin:round; stroke-width:4; stroke-opacity:1; fill:none" points="
  1914.89,1423.18 1914.89,1404.28 
  "/>
<polyline clip-path="url(#clip120)" style="stroke:#000000; stroke-linecap:butt; stroke-linejoin:round; stroke-width:4; stroke-opacity:1; fill:none" points="
  2257.69,1423.18 2257.69,1404.28 
  "/>
<path clip-path="url(#clip120)" d="M513.468 1469.17 Q510.135 1469.17 508.214 1470.95 Q506.316 1472.73 506.316 1475.86 Q506.316 1478.98 508.214 1480.77 Q510.135 1482.55 513.468 1482.55 Q516.802 1482.55 518.723 1480.77 Q520.644 1478.96 520.644 1475.86 Q520.644 1472.73 518.723 1470.95 Q516.825 1469.17 513.468 1469.17 M508.793 1467.18 Q505.783 1466.44 504.094 1464.38 Q502.427 1462.32 502.427 1459.35 Q502.427 1455.21 505.367 1452.8 Q508.33 1450.39 513.468 1450.39 Q518.63 1450.39 521.57 1452.8 Q524.51 1455.21 524.51 1459.35 Q524.51 1462.32 522.82 1464.38 Q521.154 1466.44 518.168 1467.18 Q521.547 1467.96 523.422 1470.26 Q525.32 1472.55 525.32 1475.86 Q525.32 1480.88 522.242 1483.57 Q519.186 1486.25 513.468 1486.25 Q507.751 1486.25 504.672 1483.57 Q501.617 1480.88 501.617 1475.86 Q501.617 1472.55 503.515 1470.26 Q505.413 1467.96 508.793 1467.18 M507.08 1459.79 Q507.08 1462.48 508.746 1463.98 Q510.436 1465.49 513.468 1465.49 Q516.478 1465.49 518.168 1463.98 Q519.88 1462.48 519.88 1459.79 Q519.88 1457.11 518.168 1455.6 Q516.478 1454.1 513.468 1454.1 Q510.436 1454.1 508.746 1455.6 Q507.08 1457.11 507.08 1459.79 Z" fill="#000000" fill-rule="evenodd" fill-opacity="1" /><path clip-path="url(#clip120)" d="M543.63 1454.1 Q540.019 1454.1 538.191 1457.66 Q536.385 1461.2 536.385 1468.33 Q536.385 1475.44 538.191 1479.01 Q540.019 1482.55 543.63 1482.55 Q547.265 1482.55 549.07 1479.01 Q550.899 1475.44 550.899 1468.33 Q550.899 1461.2 549.07 1457.66 Q547.265 1454.1 543.63 1454.1 M543.63 1450.39 Q549.441 1450.39 552.496 1455 Q555.575 1459.58 555.575 1468.33 Q555.575 1477.06 552.496 1481.67 Q549.441 1486.25 543.63 1486.25 Q537.82 1486.25 534.742 1481.67 Q531.686 1477.06 531.686 1468.33 Q531.686 1459.58 534.742 1455 Q537.82 1450.39 543.63 1450.39 Z" fill="#000000" fill-rule="evenodd" fill-opacity="1" /><path clip-path="url(#clip120)" d="M573.792 1454.1 Q570.181 1454.1 568.352 1457.66 Q566.547 1461.2 566.547 1468.33 Q566.547 1475.44 568.352 1479.01 Q570.181 1482.55 573.792 1482.55 Q577.426 1482.55 579.232 1479.01 Q581.061 1475.44 581.061 1468.33 Q581.061 1461.2 579.232 1457.66 Q577.426 1454.1 573.792 1454.1 M573.792 1450.39 Q579.602 1450.39 582.658 1455 Q585.737 1459.58 585.737 1468.33 Q585.737 1477.06 582.658 1481.67 Q579.602 1486.25 573.792 1486.25 Q567.982 1486.25 564.903 1481.67 Q561.848 1477.06 561.848 1468.33 Q561.848 1459.58 564.903 1455 Q567.982 1450.39 573.792 1450.39 Z" fill="#000000" fill-rule="evenodd" fill-opacity="1" /><path clip-path="url(#clip120)" d="M846.527 1484.86 L846.527 1480.6 Q848.286 1481.44 850.091 1481.88 Q851.897 1482.32 853.633 1482.32 Q858.263 1482.32 860.693 1479.21 Q863.147 1476.09 863.494 1469.75 Q862.151 1471.74 860.091 1472.8 Q858.031 1473.87 855.531 1473.87 Q850.346 1473.87 847.314 1470.74 Q844.304 1467.59 844.304 1462.15 Q844.304 1456.83 847.452 1453.61 Q850.601 1450.39 855.832 1450.39 Q861.827 1450.39 864.976 1455 Q868.147 1459.58 868.147 1468.33 Q868.147 1476.51 864.258 1481.39 Q860.392 1486.25 853.841 1486.25 Q852.082 1486.25 850.277 1485.9 Q848.471 1485.56 846.527 1484.86 M855.832 1470.21 Q858.98 1470.21 860.809 1468.06 Q862.661 1465.9 862.661 1462.15 Q862.661 1458.43 860.809 1456.27 Q858.98 1454.1 855.832 1454.1 Q852.684 1454.1 850.832 1456.27 Q849.003 1458.43 849.003 1462.15 Q849.003 1465.9 850.832 1468.06 Q852.684 1470.21 855.832 1470.21 Z" fill="#000000" fill-rule="evenodd" fill-opacity="1" /><path clip-path="url(#clip120)" d="M886.549 1454.1 Q882.938 1454.1 881.11 1457.66 Q879.304 1461.2 879.304 1468.33 Q879.304 1475.44 881.11 1479.01 Q882.938 1482.55 886.549 1482.55 Q890.184 1482.55 891.989 1479.01 Q893.818 1475.44 893.818 1468.33 Q893.818 1461.2 891.989 1457.66 Q890.184 1454.1 886.549 1454.1 M886.549 1450.39 Q892.36 1450.39 895.415 1455 Q898.494 1459.58 898.494 1468.33 Q898.494 1477.06 895.415 1481.67 Q892.36 1486.25 886.549 1486.25 Q880.739 1486.25 877.661 1481.67 Q874.605 1477.06 874.605 1468.33 Q874.605 1459.58 877.661 1455 Q880.739 1450.39 886.549 1450.39 Z" fill="#000000" fill-rule="evenodd" fill-opacity="1" /><path clip-path="url(#clip120)" d="M916.711 1454.1 Q913.1 1454.1 911.272 1457.66 Q909.466 1461.2 909.466 1468.33 Q909.466 1475.44 911.272 1479.01 Q913.1 1482.55 916.711 1482.55 Q920.346 1482.55 922.151 1479.01 Q923.98 1475.44 923.98 1468.33 Q923.98 1461.2 922.151 1457.66 Q920.346 1454.1 916.711 1454.1 M916.711 1450.39 Q922.521 1450.39 925.577 1455 Q928.656 1459.58 928.656 1468.33 Q928.656 1477.06 925.577 1481.67 Q922.521 1486.25 916.711 1486.25 Q910.901 1486.25 907.822 1481.67 Q904.767 1477.06 904.767 1468.33 Q904.767 1459.58 907.822 1455 Q910.901 1450.39 916.711 1450.39 Z" fill="#000000" fill-rule="evenodd" fill-opacity="1" /><path clip-path="url(#clip120)" d="M1173.81 1481.64 L1181.45 1481.64 L1181.45 1455.28 L1173.14 1456.95 L1173.14 1452.69 L1181.4 1451.02 L1186.08 1451.02 L1186.08 1481.64 L1193.72 1481.64 L1193.72 1485.58 L1173.81 1485.58 L1173.81 1481.64 Z" fill="#000000" fill-rule="evenodd" fill-opacity="1" /><path clip-path="url(#clip120)" d="M1213.16 1454.1 Q1209.55 1454.1 1207.72 1457.66 Q1205.92 1461.2 1205.92 1468.33 Q1205.92 1475.44 1207.72 1479.01 Q1209.55 1482.55 1213.16 1482.55 Q1216.8 1482.55 1218.6 1479.01 Q1220.43 1475.44 1220.43 1468.33 Q1220.43 1461.2 1218.6 1457.66 Q1216.8 1454.1 1213.16 1454.1 M1213.16 1450.39 Q1218.97 1450.39 1222.03 1455 Q1225.11 1459.58 1225.11 1468.33 Q1225.11 1477.06 1222.03 1481.67 Q1218.97 1486.25 1213.16 1486.25 Q1207.35 1486.25 1204.27 1481.67 Q1201.22 1477.06 1201.22 1468.33 Q1201.22 1459.58 1204.27 1455 Q1207.35 1450.39 1213.16 1450.39 Z" fill="#000000" fill-rule="evenodd" fill-opacity="1" /><path clip-path="url(#clip120)" d="M1243.32 1454.1 Q1239.71 1454.1 1237.88 1457.66 Q1236.08 1461.2 1236.08 1468.33 Q1236.08 1475.44 1237.88 1479.01 Q1239.71 1482.55 1243.32 1482.55 Q1246.96 1482.55 1248.76 1479.01 Q1250.59 1475.44 1250.59 1468.33 Q1250.59 1461.2 1248.76 1457.66 Q1246.96 1454.1 1243.32 1454.1 M1243.32 1450.39 Q1249.13 1450.39 1252.19 1455 Q1255.27 1459.58 1255.27 1468.33 Q1255.27 1477.06 1252.19 1481.67 Q1249.13 1486.25 1243.32 1486.25 Q1237.51 1486.25 1234.43 1481.67 Q1231.38 1477.06 1231.38 1468.33 Q1231.38 1459.58 1234.43 1455 Q1237.51 1450.39 1243.32 1450.39 Z" fill="#000000" fill-rule="evenodd" fill-opacity="1" /><path clip-path="url(#clip120)" d="M1273.48 1454.1 Q1269.87 1454.1 1268.04 1457.66 Q1266.24 1461.2 1266.24 1468.33 Q1266.24 1475.44 1268.04 1479.01 Q1269.87 1482.55 1273.48 1482.55 Q1277.12 1482.55 1278.92 1479.01 Q1280.75 1475.44 1280.75 1468.33 Q1280.75 1461.2 1278.92 1457.66 Q1277.12 1454.1 1273.48 1454.1 M1273.48 1450.39 Q1279.29 1450.39 1282.35 1455 Q1285.43 1459.58 1285.43 1468.33 Q1285.43 1477.06 1282.35 1481.67 Q1279.29 1486.25 1273.48 1486.25 Q1267.67 1486.25 1264.6 1481.67 Q1261.54 1477.06 1261.54 1468.33 Q1261.54 1459.58 1264.6 1455 Q1267.67 1450.39 1273.48 1450.39 Z" fill="#000000" fill-rule="evenodd" fill-opacity="1" /><path clip-path="url(#clip120)" d="M1516.61 1481.64 L1524.25 1481.64 L1524.25 1455.28 L1515.94 1456.95 L1515.94 1452.69 L1524.21 1451.02 L1528.88 1451.02 L1528.88 1481.64 L1536.52 1481.64 L1536.52 1485.58 L1516.61 1485.58 L1516.61 1481.64 Z" fill="#000000" fill-rule="evenodd" fill-opacity="1" /><path clip-path="url(#clip120)" d="M1546.77 1481.64 L1554.41 1481.64 L1554.41 1455.28 L1546.1 1456.95 L1546.1 1452.69 L1554.37 1451.02 L1559.04 1451.02 L1559.04 1481.64 L1566.68 1481.64 L1566.68 1485.58 L1546.77 1485.58 L1546.77 1481.64 Z" fill="#000000" fill-rule="evenodd" fill-opacity="1" /><path clip-path="url(#clip120)" d="M1586.13 1454.1 Q1582.51 1454.1 1580.69 1457.66 Q1578.88 1461.2 1578.88 1468.33 Q1578.88 1475.44 1580.69 1479.01 Q1582.51 1482.55 1586.13 1482.55 Q1589.76 1482.55 1591.57 1479.01 Q1593.39 1475.44 1593.39 1468.33 Q1593.39 1461.2 1591.57 1457.66 Q1589.76 1454.1 1586.13 1454.1 M1586.13 1450.39 Q1591.94 1450.39 1594.99 1455 Q1598.07 1459.58 1598.07 1468.33 Q1598.07 1477.06 1594.99 1481.67 Q1591.94 1486.25 1586.13 1486.25 Q1580.32 1486.25 1577.24 1481.67 Q1574.18 1477.06 1574.18 1468.33 Q1574.18 1459.58 1577.24 1455 Q1580.32 1450.39 1586.13 1450.39 Z" fill="#000000" fill-rule="evenodd" fill-opacity="1" /><path clip-path="url(#clip120)" d="M1616.29 1454.1 Q1612.68 1454.1 1610.85 1457.66 Q1609.04 1461.2 1609.04 1468.33 Q1609.04 1475.44 1610.85 1479.01 Q1612.68 1482.55 1616.29 1482.55 Q1619.92 1482.55 1621.73 1479.01 Q1623.56 1475.44 1623.56 1468.33 Q1623.56 1461.2 1621.73 1457.66 Q1619.92 1454.1 1616.29 1454.1 M1616.29 1450.39 Q1622.1 1450.39 1625.15 1455 Q1628.23 1459.58 1628.23 1468.33 Q1628.23 1477.06 1625.15 1481.67 Q1622.1 1486.25 1616.29 1486.25 Q1610.48 1486.25 1607.4 1481.67 Q1604.34 1477.06 1604.34 1468.33 Q1604.34 1459.58 1607.4 1455 Q1610.48 1450.39 1616.29 1450.39 Z" fill="#000000" fill-rule="evenodd" fill-opacity="1" /><path clip-path="url(#clip120)" d="M1859.42 1481.64 L1867.05 1481.64 L1867.05 1455.28 L1858.74 1456.95 L1858.74 1452.69 L1867.01 1451.02 L1871.68 1451.02 L1871.68 1481.64 L1879.32 1481.64 L1879.32 1485.58 L1859.42 1485.58 L1859.42 1481.64 Z" fill="#000000" fill-rule="evenodd" fill-opacity="1" /><path clip-path="url(#clip120)" d="M1892.8 1481.64 L1909.11 1481.64 L1909.11 1485.58 L1887.17 1485.58 L1887.17 1481.64 Q1889.83 1478.89 1894.42 1474.26 Q1899.02 1469.61 1900.2 1468.27 Q1902.45 1465.74 1903.33 1464.01 Q1904.23 1462.25 1904.23 1460.56 Q1904.23 1457.8 1902.29 1456.07 Q1900.36 1454.33 1897.26 1454.33 Q1895.06 1454.33 1892.61 1455.09 Q1890.18 1455.86 1887.4 1457.41 L1887.4 1452.69 Q1890.23 1451.55 1892.68 1450.97 Q1895.13 1450.39 1897.17 1450.39 Q1902.54 1450.39 1905.74 1453.08 Q1908.93 1455.77 1908.93 1460.26 Q1908.93 1462.39 1908.12 1464.31 Q1907.33 1466.2 1905.23 1468.8 Q1904.65 1469.47 1901.55 1472.69 Q1898.44 1475.88 1892.8 1481.64 Z" fill="#000000" fill-rule="evenodd" fill-opacity="1" /><path clip-path="url(#clip120)" d="M1928.93 1454.1 Q1925.32 1454.1 1923.49 1457.66 Q1921.68 1461.2 1921.68 1468.33 Q1921.68 1475.44 1923.49 1479.01 Q1925.32 1482.55 1928.93 1482.55 Q1932.56 1482.55 1934.37 1479.01 Q1936.2 1475.44 1936.2 1468.33 Q1936.2 1461.2 1934.37 1457.66 Q1932.56 1454.1 1928.93 1454.1 M1928.93 1450.39 Q1934.74 1450.39 1937.8 1455 Q1940.87 1459.58 1940.87 1468.33 Q1940.87 1477.06 1937.8 1481.67 Q1934.74 1486.25 1928.93 1486.25 Q1923.12 1486.25 1920.04 1481.67 Q1916.98 1477.06 1916.98 1468.33 Q1916.98 1459.58 1920.04 1455 Q1923.12 1450.39 1928.93 1450.39 Z" fill="#000000" fill-rule="evenodd" fill-opacity="1" /><path clip-path="url(#clip120)" d="M1959.09 1454.1 Q1955.48 1454.1 1953.65 1457.66 Q1951.85 1461.2 1951.85 1468.33 Q1951.85 1475.44 1953.65 1479.01 Q1955.48 1482.55 1959.09 1482.55 Q1962.73 1482.55 1964.53 1479.01 Q1966.36 1475.44 1966.36 1468.33 Q1966.36 1461.2 1964.53 1457.66 Q1962.73 1454.1 1959.09 1454.1 M1959.09 1450.39 Q1964.9 1450.39 1967.96 1455 Q1971.04 1459.58 1971.04 1468.33 Q1971.04 1477.06 1967.96 1481.67 Q1964.9 1486.25 1959.09 1486.25 Q1953.28 1486.25 1950.2 1481.67 Q1947.15 1477.06 1947.15 1468.33 Q1947.15 1459.58 1950.2 1455 Q1953.28 1450.39 1959.09 1450.39 Z" fill="#000000" fill-rule="evenodd" fill-opacity="1" /><path clip-path="url(#clip120)" d="M2202.22 1481.64 L2209.86 1481.64 L2209.86 1455.28 L2201.55 1456.95 L2201.55 1452.69 L2209.81 1451.02 L2214.49 1451.02 L2214.49 1481.64 L2222.13 1481.64 L2222.13 1485.58 L2202.22 1485.58 L2202.22 1481.64 Z" fill="#000000" fill-rule="evenodd" fill-opacity="1" /><path clip-path="url(#clip120)" d="M2245.74 1466.95 Q2249.09 1467.66 2250.97 1469.93 Q2252.87 1472.2 2252.87 1475.53 Q2252.87 1480.65 2249.35 1483.45 Q2245.83 1486.25 2239.35 1486.25 Q2237.17 1486.25 2234.86 1485.81 Q2232.57 1485.39 2230.11 1484.54 L2230.11 1480.02 Q2232.06 1481.16 2234.37 1481.74 Q2236.69 1482.32 2239.21 1482.32 Q2243.61 1482.32 2245.9 1480.58 Q2248.21 1478.84 2248.21 1475.53 Q2248.21 1472.48 2246.06 1470.77 Q2243.93 1469.03 2240.11 1469.03 L2236.08 1469.03 L2236.08 1465.19 L2240.3 1465.19 Q2243.75 1465.19 2245.58 1463.82 Q2247.4 1462.43 2247.4 1459.84 Q2247.4 1457.18 2245.51 1455.77 Q2243.63 1454.33 2240.11 1454.33 Q2238.19 1454.33 2235.99 1454.75 Q2233.79 1455.16 2231.15 1456.04 L2231.15 1451.88 Q2233.82 1451.14 2236.13 1450.77 Q2238.47 1450.39 2240.53 1450.39 Q2245.85 1450.39 2248.96 1452.83 Q2252.06 1455.23 2252.06 1459.35 Q2252.06 1462.22 2250.41 1464.21 Q2248.77 1466.18 2245.74 1466.95 Z" fill="#000000" fill-rule="evenodd" fill-opacity="1" /><path clip-path="url(#clip120)" d="M2271.73 1454.1 Q2268.12 1454.1 2266.29 1457.66 Q2264.49 1461.2 2264.49 1468.33 Q2264.49 1475.44 2266.29 1479.01 Q2268.12 1482.55 2271.73 1482.55 Q2275.37 1482.55 2277.17 1479.01 Q2279 1475.44 2279 1468.33 Q2279 1461.2 2277.17 1457.66 Q2275.37 1454.1 2271.73 1454.1 M2271.73 1450.39 Q2277.54 1450.39 2280.6 1455 Q2283.68 1459.58 2283.68 1468.33 Q2283.68 1477.06 2280.6 1481.67 Q2277.54 1486.25 2271.73 1486.25 Q2265.92 1486.25 2262.84 1481.67 Q2259.79 1477.06 2259.79 1468.33 Q2259.79 1459.58 2262.84 1455 Q2265.92 1450.39 2271.73 1450.39 Z" fill="#000000" fill-rule="evenodd" fill-opacity="1" /><path clip-path="url(#clip120)" d="M2301.89 1454.1 Q2298.28 1454.1 2296.45 1457.66 Q2294.65 1461.2 2294.65 1468.33 Q2294.65 1475.44 2296.45 1479.01 Q2298.28 1482.55 2301.89 1482.55 Q2305.53 1482.55 2307.33 1479.01 Q2309.16 1475.44 2309.16 1468.33 Q2309.16 1461.2 2307.33 1457.66 Q2305.53 1454.1 2301.89 1454.1 M2301.89 1450.39 Q2307.7 1450.39 2310.76 1455 Q2313.84 1459.58 2313.84 1468.33 Q2313.84 1477.06 2310.76 1481.67 Q2307.7 1486.25 2301.89 1486.25 Q2296.08 1486.25 2293.01 1481.67 Q2289.95 1477.06 2289.95 1468.33 Q2289.95 1459.58 2293.01 1455 Q2296.08 1450.39 2301.89 1450.39 Z" fill="#000000" fill-rule="evenodd" fill-opacity="1" /><path clip-path="url(#clip120)" d="M990.19 1525.81 L990.19 1562.76 L997.956 1562.76 Q1007.79 1562.76 1012.34 1558.3 Q1016.93 1553.85 1016.93 1544.24 Q1016.93 1534.69 1012.34 1530.26 Q1007.79 1525.81 997.956 1525.81 L990.19 1525.81 M983.761 1520.52 L996.969 1520.52 Q1010.78 1520.52 1017.24 1526.28 Q1023.71 1532.01 1023.71 1544.24 Q1023.71 1556.52 1017.21 1562.28 Q1010.72 1568.04 996.969 1568.04 L983.761 1568.04 L983.761 1520.52 Z" fill="#000000" fill-rule="evenodd" fill-opacity="1" /><path clip-path="url(#clip120)" d="M1064.19 1548.76 L1064.19 1551.62 L1037.26 1551.62 Q1037.65 1557.67 1040.89 1560.85 Q1044.17 1564 1050 1564 Q1053.37 1564 1056.52 1563.17 Q1059.7 1562.35 1062.82 1560.69 L1062.82 1566.23 Q1059.67 1567.57 1056.36 1568.27 Q1053.05 1568.97 1049.65 1568.97 Q1041.12 1568.97 1036.12 1564 Q1031.15 1559.04 1031.15 1550.57 Q1031.15 1541.82 1035.86 1536.69 Q1040.61 1531.54 1048.63 1531.54 Q1055.82 1531.54 1059.99 1536.18 Q1064.19 1540.8 1064.19 1548.76 M1058.33 1547.04 Q1058.27 1542.23 1055.63 1539.37 Q1053.02 1536.5 1048.69 1536.5 Q1043.79 1536.5 1040.83 1539.27 Q1037.9 1542.04 1037.46 1547.07 L1058.33 1547.04 Z" fill="#000000" fill-rule="evenodd" fill-opacity="1" /><path clip-path="url(#clip120)" d="M1103.44 1546.53 L1103.44 1568.04 L1097.58 1568.04 L1097.58 1546.72 Q1097.58 1541.66 1095.61 1539.14 Q1093.63 1536.63 1089.69 1536.63 Q1084.94 1536.63 1082.21 1539.65 Q1079.47 1542.68 1079.47 1547.9 L1079.47 1568.04 L1073.58 1568.04 L1073.58 1532.4 L1079.47 1532.4 L1079.47 1537.93 Q1081.57 1534.72 1084.4 1533.13 Q1087.27 1531.54 1090.99 1531.54 Q1097.13 1531.54 1100.28 1535.36 Q1103.44 1539.14 1103.44 1546.53 Z" fill="#000000" fill-rule="evenodd" fill-opacity="1" /><path clip-path="url(#clip120)" d="M1137.84 1533.45 L1137.84 1538.98 Q1135.36 1537.71 1132.69 1537.07 Q1130.01 1536.44 1127.15 1536.44 Q1122.79 1536.44 1120.59 1537.77 Q1118.43 1539.11 1118.43 1541.79 Q1118.43 1543.82 1119.99 1545 Q1121.55 1546.15 1126.26 1547.2 L1128.26 1547.64 Q1134.5 1548.98 1137.11 1551.43 Q1139.75 1553.85 1139.75 1558.21 Q1139.75 1563.17 1135.81 1566.07 Q1131.89 1568.97 1125.02 1568.97 Q1122.15 1568.97 1119.03 1568.39 Q1115.94 1567.85 1112.51 1566.74 L1112.51 1560.69 Q1115.75 1562.38 1118.9 1563.24 Q1122.06 1564.07 1125.14 1564.07 Q1129.28 1564.07 1131.51 1562.66 Q1133.74 1561.23 1133.74 1558.65 Q1133.74 1556.27 1132.11 1554.99 Q1130.52 1553.72 1125.08 1552.54 L1123.04 1552.07 Q1117.6 1550.92 1115.18 1548.56 Q1112.76 1546.18 1112.76 1542.04 Q1112.76 1537.01 1116.33 1534.27 Q1119.89 1531.54 1126.45 1531.54 Q1129.69 1531.54 1132.56 1532.01 Q1135.42 1532.49 1137.84 1533.45 Z" fill="#000000" fill-rule="evenodd" fill-opacity="1" /><path clip-path="url(#clip120)" d="M1149.08 1532.4 L1154.93 1532.4 L1154.93 1568.04 L1149.08 1568.04 L1149.08 1532.4 M1149.08 1518.52 L1154.93 1518.52 L1154.93 1525.93 L1149.08 1525.93 L1149.08 1518.52 Z" fill="#000000" fill-rule="evenodd" fill-opacity="1" /><path clip-path="url(#clip120)" d="M1172.98 1522.27 L1172.98 1532.4 L1185.04 1532.4 L1185.04 1536.95 L1172.98 1536.95 L1172.98 1556.3 Q1172.98 1560.66 1174.16 1561.9 Q1175.37 1563.14 1179.03 1563.14 L1185.04 1563.14 L1185.04 1568.04 L1179.03 1568.04 Q1172.25 1568.04 1169.67 1565.53 Q1167.09 1562.98 1167.09 1556.3 L1167.09 1536.95 L1162.8 1536.95 L1162.8 1532.4 L1167.09 1532.4 L1167.09 1522.27 L1172.98 1522.27 Z" fill="#000000" fill-rule="evenodd" fill-opacity="1" /><path clip-path="url(#clip120)" d="M1207.58 1571.35 Q1205.1 1577.72 1202.74 1579.66 Q1200.39 1581.6 1196.44 1581.6 L1191.76 1581.6 L1191.76 1576.7 L1195.2 1576.7 Q1197.62 1576.7 1198.95 1575.56 Q1200.29 1574.41 1201.91 1570.14 L1202.96 1567.47 L1188.55 1532.4 L1194.75 1532.4 L1205.89 1560.28 L1217.03 1532.4 L1223.24 1532.4 L1207.58 1571.35 Z" fill="#000000" fill-rule="evenodd" fill-opacity="1" /><path clip-path="url(#clip120)" d="M1266.11 1518.58 Q1261.85 1525.9 1259.78 1533.06 Q1257.71 1540.23 1257.71 1547.58 Q1257.71 1554.93 1259.78 1562.16 Q1261.88 1569.35 1266.11 1576.64 L1261.02 1576.64 Q1256.24 1569.16 1253.86 1561.93 Q1251.5 1554.71 1251.5 1547.58 Q1251.5 1540.48 1253.86 1533.29 Q1256.21 1526.09 1261.02 1518.58 L1266.11 1518.58 Z" fill="#000000" fill-rule="evenodd" fill-opacity="1" /><path clip-path="url(#clip120)" d="M1277.25 1518.52 L1283.14 1518.52 L1283.14 1547.77 L1300.61 1532.4 L1308.09 1532.4 L1289.19 1549.07 L1308.89 1568.04 L1301.25 1568.04 L1283.14 1550.63 L1283.14 1568.04 L1277.25 1568.04 L1277.25 1518.52 Z" fill="#000000" fill-rule="evenodd" fill-opacity="1" /><path clip-path="url(#clip120)" d="M1338.68 1549.81 Q1338.68 1543.44 1336.04 1539.94 Q1333.43 1536.44 1328.69 1536.44 Q1323.98 1536.44 1321.33 1539.94 Q1318.72 1543.44 1318.72 1549.81 Q1318.72 1556.14 1321.33 1559.64 Q1323.98 1563.14 1328.69 1563.14 Q1333.43 1563.14 1336.04 1559.64 Q1338.68 1556.14 1338.68 1549.81 M1344.54 1563.62 Q1344.54 1572.72 1340.49 1577.15 Q1336.45 1581.6 1328.11 1581.6 Q1325.03 1581.6 1322.29 1581.13 Q1319.55 1580.68 1316.97 1579.72 L1316.97 1574.03 Q1319.55 1575.43 1322.07 1576.1 Q1324.58 1576.76 1327.19 1576.76 Q1332.95 1576.76 1335.82 1573.74 Q1338.68 1570.75 1338.68 1564.67 L1338.68 1561.77 Q1336.87 1564.92 1334.03 1566.48 Q1331.2 1568.04 1327.25 1568.04 Q1320.7 1568.04 1316.69 1563.05 Q1312.68 1558.05 1312.68 1549.81 Q1312.68 1541.53 1316.69 1536.53 Q1320.7 1531.54 1327.25 1531.54 Q1331.2 1531.54 1334.03 1533.1 Q1336.87 1534.66 1338.68 1537.81 L1338.68 1532.4 L1344.54 1532.4 L1344.54 1563.62 Z" fill="#000000" fill-rule="evenodd" fill-opacity="1" /><path clip-path="url(#clip120)" d="M1405.07 1539.24 Q1407.27 1535.29 1410.33 1533.41 Q1413.38 1531.54 1417.52 1531.54 Q1423.09 1531.54 1426.11 1535.45 Q1429.14 1539.33 1429.14 1546.53 L1429.14 1568.04 L1423.25 1568.04 L1423.25 1546.72 Q1423.25 1541.59 1421.43 1539.11 Q1419.62 1536.63 1415.9 1536.63 Q1411.35 1536.63 1408.7 1539.65 Q1406.06 1542.68 1406.06 1547.9 L1406.06 1568.04 L1400.17 1568.04 L1400.17 1546.72 Q1400.17 1541.56 1398.36 1539.11 Q1396.54 1536.63 1392.76 1536.63 Q1388.27 1536.63 1385.63 1539.68 Q1382.99 1542.71 1382.99 1547.9 L1382.99 1568.04 L1377.1 1568.04 L1377.1 1532.4 L1382.99 1532.4 L1382.99 1537.93 Q1384.99 1534.66 1387.79 1533.1 Q1390.59 1531.54 1394.44 1531.54 Q1398.33 1531.54 1401.03 1533.51 Q1403.77 1535.48 1405.07 1539.24 Z" fill="#000000" fill-rule="evenodd" fill-opacity="1" /><path clip-path="url(#clip120)" d="M1465.1 1520.52 L1482.39 1538.25 L1475.99 1538.25 L1461.98 1525.68 L1447.98 1538.25 L1441.58 1538.25 L1458.87 1520.52 L1465.1 1520.52 Z" fill="#000000" fill-rule="evenodd" fill-opacity="1" /><path clip-path="url(#clip120)" d="M1492.48 1547.58 L1509.63 1547.58 L1509.63 1552.8 L1492.48 1552.8 L1492.48 1547.58 Z" fill="#000000" fill-rule="evenodd" fill-opacity="1" /><path clip-path="url(#clip120)" d="M1539.26 1542.42 Q1543.88 1543.41 1546.46 1546.53 Q1549.07 1549.65 1549.07 1554.23 Q1549.07 1561.26 1544.23 1565.12 Q1539.39 1568.97 1530.48 1568.97 Q1527.49 1568.97 1524.3 1568.36 Q1521.15 1567.79 1517.78 1566.61 L1517.78 1560.4 Q1520.45 1561.96 1523.64 1562.76 Q1526.82 1563.56 1530.29 1563.56 Q1536.34 1563.56 1539.49 1561.17 Q1542.67 1558.78 1542.67 1554.23 Q1542.67 1550.03 1539.71 1547.67 Q1536.78 1545.29 1531.53 1545.29 L1525.99 1545.29 L1525.99 1540 L1531.78 1540 Q1536.53 1540 1539.04 1538.13 Q1541.56 1536.22 1541.56 1532.65 Q1541.56 1528.99 1538.95 1527.05 Q1536.37 1525.08 1531.53 1525.08 Q1528.89 1525.08 1525.86 1525.65 Q1522.84 1526.22 1519.21 1527.43 L1519.21 1521.7 Q1522.87 1520.68 1526.06 1520.17 Q1529.27 1519.66 1532.1 1519.66 Q1539.42 1519.66 1543.69 1523.01 Q1547.95 1526.32 1547.95 1531.98 Q1547.95 1535.93 1545.69 1538.67 Q1543.43 1541.37 1539.26 1542.42 Z" fill="#000000" fill-rule="evenodd" fill-opacity="1" /><path clip-path="url(#clip120)" d="M1559.51 1518.58 L1564.6 1518.58 Q1569.37 1526.09 1571.73 1533.29 Q1574.12 1540.48 1574.12 1547.58 Q1574.12 1554.71 1571.73 1561.93 Q1569.37 1569.16 1564.6 1576.64 L1559.51 1576.64 Q1563.74 1569.35 1565.81 1562.16 Q1567.91 1554.93 1567.91 1547.58 Q1567.91 1540.23 1565.81 1533.06 Q1563.74 1525.9 1559.51 1518.58 Z" fill="#000000" fill-rule="evenodd" fill-opacity="1" /><polyline clip-path="url(#clip122)" style="stroke:#000000; stroke-linecap:butt; stroke-linejoin:round; stroke-width:2; stroke-opacity:0.1; fill:none" points="
  205.121,1263.6 2352.76,1263.6 
  "/>
<polyline clip-path="url(#clip122)" style="stroke:#000000; stroke-linecap:butt; stroke-linejoin:round; stroke-width:2; stroke-opacity:0.1; fill:none" points="
  205.121,1084.66 2352.76,1084.66 
  "/>
<polyline clip-path="url(#clip122)" style="stroke:#000000; stroke-linecap:butt; stroke-linejoin:round; stroke-width:2; stroke-opacity:0.1; fill:none" points="
  205.121,905.723 2352.76,905.723 
  "/>
<polyline clip-path="url(#clip122)" style="stroke:#000000; stroke-linecap:butt; stroke-linejoin:round; stroke-width:2; stroke-opacity:0.1; fill:none" points="
  205.121,726.785 2352.76,726.785 
  "/>
<polyline clip-path="url(#clip122)" style="stroke:#000000; stroke-linecap:butt; stroke-linejoin:round; stroke-width:2; stroke-opacity:0.1; fill:none" points="
  205.121,547.847 2352.76,547.847 
  "/>
<polyline clip-path="url(#clip122)" style="stroke:#000000; stroke-linecap:butt; stroke-linejoin:round; stroke-width:2; stroke-opacity:0.1; fill:none" points="
  205.121,368.908 2352.76,368.908 
  "/>
<polyline clip-path="url(#clip122)" style="stroke:#000000; stroke-linecap:butt; stroke-linejoin:round; stroke-width:2; stroke-opacity:0.1; fill:none" points="
  205.121,189.97 2352.76,189.97 
  "/>
<polyline clip-path="url(#clip120)" style="stroke:#000000; stroke-linecap:butt; stroke-linejoin:round; stroke-width:4; stroke-opacity:1; fill:none" points="
  205.121,1423.18 205.121,47.2441 
  "/>
<polyline clip-path="url(#clip120)" style="stroke:#000000; stroke-linecap:butt; stroke-linejoin:round; stroke-width:4; stroke-opacity:1; fill:none" points="
  205.121,1263.6 224.019,1263.6 
  "/>
<polyline clip-path="url(#clip120)" style="stroke:#000000; stroke-linecap:butt; stroke-linejoin:round; stroke-width:4; stroke-opacity:1; fill:none" points="
  205.121,1084.66 224.019,1084.66 
  "/>
<polyline clip-path="url(#clip120)" style="stroke:#000000; stroke-linecap:butt; stroke-linejoin:round; stroke-width:4; stroke-opacity:1; fill:none" points="
  205.121,905.723 224.019,905.723 
  "/>
<polyline clip-path="url(#clip120)" style="stroke:#000000; stroke-linecap:butt; stroke-linejoin:round; stroke-width:4; stroke-opacity:1; fill:none" points="
  205.121,726.785 224.019,726.785 
  "/>
<polyline clip-path="url(#clip120)" style="stroke:#000000; stroke-linecap:butt; stroke-linejoin:round; stroke-width:4; stroke-opacity:1; fill:none" points="
  205.121,547.847 224.019,547.847 
  "/>
<polyline clip-path="url(#clip120)" style="stroke:#000000; stroke-linecap:butt; stroke-linejoin:round; stroke-width:4; stroke-opacity:1; fill:none" points="
  205.121,368.908 224.019,368.908 
  "/>
<polyline clip-path="url(#clip120)" style="stroke:#000000; stroke-linecap:butt; stroke-linejoin:round; stroke-width:4; stroke-opacity:1; fill:none" points="
  205.121,189.97 224.019,189.97 
  "/>
<path clip-path="url(#clip120)" d="M117.825 1276.95 L125.464 1276.95 L125.464 1250.58 L117.154 1252.25 L117.154 1247.99 L125.418 1246.32 L130.093 1246.32 L130.093 1276.95 L137.732 1276.95 L137.732 1280.88 L117.825 1280.88 L117.825 1276.95 Z" fill="#000000" fill-rule="evenodd" fill-opacity="1" /><path clip-path="url(#clip120)" d="M157.177 1249.4 Q153.566 1249.4 151.737 1252.96 Q149.931 1256.51 149.931 1263.63 Q149.931 1270.74 151.737 1274.31 Q153.566 1277.85 157.177 1277.85 Q160.811 1277.85 162.616 1274.31 Q164.445 1270.74 164.445 1263.63 Q164.445 1256.51 162.616 1252.96 Q160.811 1249.4 157.177 1249.4 M157.177 1245.7 Q162.987 1245.7 166.042 1250.3 Q169.121 1254.89 169.121 1263.63 Q169.121 1272.36 166.042 1276.97 Q162.987 1281.55 157.177 1281.55 Q151.366 1281.55 148.288 1276.97 Q145.232 1272.36 145.232 1263.63 Q145.232 1254.89 148.288 1250.3 Q151.366 1245.7 157.177 1245.7 Z" fill="#000000" fill-rule="evenodd" fill-opacity="1" /><path clip-path="url(#clip120)" d="M121.043 1098.01 L137.362 1098.01 L137.362 1101.94 L115.418 1101.94 L115.418 1098.01 Q118.08 1095.25 122.663 1090.62 Q127.269 1085.97 128.45 1084.63 Q130.695 1082.1 131.575 1080.37 Q132.478 1078.61 132.478 1076.92 Q132.478 1074.16 130.533 1072.43 Q128.612 1070.69 125.51 1070.69 Q123.311 1070.69 120.857 1071.46 Q118.427 1072.22 115.649 1073.77 L115.649 1069.05 Q118.473 1067.91 120.927 1067.34 Q123.38 1066.76 125.418 1066.76 Q130.788 1066.76 133.982 1069.44 Q137.177 1072.13 137.177 1076.62 Q137.177 1078.75 136.367 1080.67 Q135.579 1082.57 133.473 1085.16 Q132.894 1085.83 129.792 1089.05 Q126.691 1092.24 121.043 1098.01 Z" fill="#000000" fill-rule="evenodd" fill-opacity="1" /><path clip-path="url(#clip120)" d="M157.177 1070.46 Q153.566 1070.46 151.737 1074.03 Q149.931 1077.57 149.931 1084.7 Q149.931 1091.8 151.737 1095.37 Q153.566 1098.91 157.177 1098.91 Q160.811 1098.91 162.616 1095.37 Q164.445 1091.8 164.445 1084.7 Q164.445 1077.57 162.616 1074.03 Q160.811 1070.46 157.177 1070.46 M157.177 1066.76 Q162.987 1066.76 166.042 1071.36 Q169.121 1075.95 169.121 1084.7 Q169.121 1093.42 166.042 1098.03 Q162.987 1102.61 157.177 1102.61 Q151.366 1102.61 148.288 1098.03 Q145.232 1093.42 145.232 1084.7 Q145.232 1075.95 148.288 1071.36 Q151.366 1066.76 157.177 1066.76 Z" fill="#000000" fill-rule="evenodd" fill-opacity="1" /><path clip-path="url(#clip120)" d="M131.181 904.369 Q134.538 905.087 136.413 907.355 Q138.311 909.624 138.311 912.957 Q138.311 918.073 134.792 920.874 Q131.274 923.675 124.793 923.675 Q122.617 923.675 120.302 923.235 Q118.01 922.818 115.556 921.962 L115.556 917.448 Q117.501 918.582 119.816 919.161 Q122.13 919.74 124.654 919.74 Q129.052 919.74 131.343 918.004 Q133.658 916.267 133.658 912.957 Q133.658 909.902 131.505 908.189 Q129.376 906.453 125.556 906.453 L121.529 906.453 L121.529 902.61 L125.742 902.61 Q129.191 902.61 131.019 901.244 Q132.848 899.855 132.848 897.263 Q132.848 894.601 130.95 893.189 Q129.075 891.754 125.556 891.754 Q123.635 891.754 121.436 892.17 Q119.237 892.587 116.598 893.467 L116.598 889.3 Q119.26 888.559 121.575 888.189 Q123.913 887.818 125.973 887.818 Q131.297 887.818 134.399 890.249 Q137.501 892.656 137.501 896.777 Q137.501 899.647 135.857 901.638 Q134.214 903.605 131.181 904.369 Z" fill="#000000" fill-rule="evenodd" fill-opacity="1" /><path clip-path="url(#clip120)" d="M157.177 891.522 Q153.566 891.522 151.737 895.087 Q149.931 898.629 149.931 905.758 Q149.931 912.865 151.737 916.429 Q153.566 919.971 157.177 919.971 Q160.811 919.971 162.616 916.429 Q164.445 912.865 164.445 905.758 Q164.445 898.629 162.616 895.087 Q160.811 891.522 157.177 891.522 M157.177 887.818 Q162.987 887.818 166.042 892.425 Q169.121 897.008 169.121 905.758 Q169.121 914.485 166.042 919.091 Q162.987 923.675 157.177 923.675 Q151.366 923.675 148.288 919.091 Q145.232 914.485 145.232 905.758 Q145.232 897.008 148.288 892.425 Q151.366 887.818 157.177 887.818 Z" fill="#000000" fill-rule="evenodd" fill-opacity="1" /><path clip-path="url(#clip120)" d="M129.862 713.579 L118.056 732.028 L129.862 732.028 L129.862 713.579 M128.635 709.505 L134.515 709.505 L134.515 732.028 L139.445 732.028 L139.445 735.917 L134.515 735.917 L134.515 744.065 L129.862 744.065 L129.862 735.917 L114.26 735.917 L114.26 731.403 L128.635 709.505 Z" fill="#000000" fill-rule="evenodd" fill-opacity="1" /><path clip-path="url(#clip120)" d="M157.177 712.584 Q153.566 712.584 151.737 716.149 Q149.931 719.69 149.931 726.82 Q149.931 733.926 151.737 737.491 Q153.566 741.033 157.177 741.033 Q160.811 741.033 162.616 737.491 Q164.445 733.926 164.445 726.82 Q164.445 719.69 162.616 716.149 Q160.811 712.584 157.177 712.584 M157.177 708.88 Q162.987 708.88 166.042 713.487 Q169.121 718.07 169.121 726.82 Q169.121 735.547 166.042 740.153 Q162.987 744.736 157.177 744.736 Q151.366 744.736 148.288 740.153 Q145.232 735.547 145.232 726.82 Q145.232 718.07 148.288 713.487 Q151.366 708.88 157.177 708.88 Z" fill="#000000" fill-rule="evenodd" fill-opacity="1" /><path clip-path="url(#clip120)" d="M117.061 530.567 L135.417 530.567 L135.417 534.502 L121.343 534.502 L121.343 542.974 Q122.362 542.627 123.38 542.465 Q124.399 542.28 125.418 542.28 Q131.205 542.28 134.584 545.451 Q137.964 548.622 137.964 554.039 Q137.964 559.617 134.492 562.719 Q131.019 565.798 124.7 565.798 Q122.524 565.798 120.255 565.428 Q118.01 565.057 115.603 564.317 L115.603 559.617 Q117.686 560.752 119.908 561.307 Q122.13 561.863 124.607 561.863 Q128.612 561.863 130.95 559.756 Q133.288 557.65 133.288 554.039 Q133.288 550.428 130.95 548.321 Q128.612 546.215 124.607 546.215 Q122.732 546.215 120.857 546.631 Q119.006 547.048 117.061 547.928 L117.061 530.567 Z" fill="#000000" fill-rule="evenodd" fill-opacity="1" /><path clip-path="url(#clip120)" d="M157.177 533.645 Q153.566 533.645 151.737 537.21 Q149.931 540.752 149.931 547.881 Q149.931 554.988 151.737 558.553 Q153.566 562.094 157.177 562.094 Q160.811 562.094 162.616 558.553 Q164.445 554.988 164.445 547.881 Q164.445 540.752 162.616 537.21 Q160.811 533.645 157.177 533.645 M157.177 529.942 Q162.987 529.942 166.042 534.548 Q169.121 539.131 169.121 547.881 Q169.121 556.608 166.042 561.215 Q162.987 565.798 157.177 565.798 Q151.366 565.798 148.288 561.215 Q145.232 556.608 145.232 547.881 Q145.232 539.131 148.288 534.548 Q151.366 529.942 157.177 529.942 Z" fill="#000000" fill-rule="evenodd" fill-opacity="1" /><path clip-path="url(#clip120)" d="M127.593 367.045 Q124.445 367.045 122.593 369.198 Q120.765 371.35 120.765 375.1 Q120.765 378.827 122.593 381.003 Q124.445 383.156 127.593 383.156 Q130.742 383.156 132.57 381.003 Q134.422 378.827 134.422 375.1 Q134.422 371.35 132.57 369.198 Q130.742 367.045 127.593 367.045 M136.876 352.392 L136.876 356.651 Q135.117 355.818 133.311 355.378 Q131.529 354.938 129.769 354.938 Q125.14 354.938 122.686 358.063 Q120.255 361.188 119.908 367.508 Q121.274 365.494 123.334 364.429 Q125.394 363.341 127.871 363.341 Q133.08 363.341 136.089 366.513 Q139.121 369.661 139.121 375.1 Q139.121 380.424 135.973 383.642 Q132.825 386.86 127.593 386.86 Q121.598 386.86 118.427 382.276 Q115.256 377.67 115.256 368.943 Q115.256 360.749 119.144 355.888 Q123.033 351.003 129.584 351.003 Q131.343 351.003 133.126 351.351 Q134.931 351.698 136.876 352.392 Z" fill="#000000" fill-rule="evenodd" fill-opacity="1" /><path clip-path="url(#clip120)" d="M157.177 354.707 Q153.566 354.707 151.737 358.272 Q149.931 361.813 149.931 368.943 Q149.931 376.049 151.737 379.614 Q153.566 383.156 157.177 383.156 Q160.811 383.156 162.616 379.614 Q164.445 376.049 164.445 368.943 Q164.445 361.813 162.616 358.272 Q160.811 354.707 157.177 354.707 M157.177 351.003 Q162.987 351.003 166.042 355.61 Q169.121 360.193 169.121 368.943 Q169.121 377.67 166.042 382.276 Q162.987 386.86 157.177 386.86 Q151.366 386.86 148.288 382.276 Q145.232 377.67 145.232 368.943 Q145.232 360.193 148.288 355.61 Q151.366 351.003 157.177 351.003 Z" fill="#000000" fill-rule="evenodd" fill-opacity="1" /><path clip-path="url(#clip120)" d="M115.834 172.69 L138.056 172.69 L138.056 174.681 L125.51 207.25 L120.626 207.25 L132.431 176.625 L115.834 176.625 L115.834 172.69 Z" fill="#000000" fill-rule="evenodd" fill-opacity="1" /><path clip-path="url(#clip120)" d="M157.177 175.769 Q153.566 175.769 151.737 179.333 Q149.931 182.875 149.931 190.005 Q149.931 197.111 151.737 200.676 Q153.566 204.218 157.177 204.218 Q160.811 204.218 162.616 200.676 Q164.445 197.111 164.445 190.005 Q164.445 182.875 162.616 179.333 Q160.811 175.769 157.177 175.769 M157.177 172.065 Q162.987 172.065 166.042 176.671 Q169.121 181.255 169.121 190.005 Q169.121 198.731 166.042 203.338 Q162.987 207.921 157.177 207.921 Q151.366 207.921 148.288 203.338 Q145.232 198.731 145.232 190.005 Q145.232 181.255 148.288 176.671 Q151.366 172.065 157.177 172.065 Z" fill="#000000" fill-rule="evenodd" fill-opacity="1" /><path clip-path="url(#clip120)" d="M21.7677 964.027 L39.6235 964.027 L39.6235 955.943 Q39.6235 951.455 37.3 949.004 Q34.9765 946.553 30.6797 946.553 Q26.4147 946.553 24.0912 949.004 Q21.7677 951.455 21.7677 955.943 L21.7677 964.027 M16.4842 970.457 L16.4842 955.943 Q16.4842 947.954 20.1126 943.88 Q23.7092 939.774 30.6797 939.774 Q37.7138 939.774 41.3104 943.88 Q44.907 947.954 44.907 955.943 L44.907 964.027 L64.0042 964.027 L64.0042 970.457 L16.4842 970.457 Z" fill="#000000" fill-rule="evenodd" fill-opacity="1" /><path clip-path="url(#clip120)" d="M33.8307 911.892 Q33.2578 912.879 33.0032 914.056 Q32.7167 915.202 32.7167 916.603 Q32.7167 921.568 35.9632 924.242 Q39.1779 926.883 45.2253 926.883 L64.0042 926.883 L64.0042 932.772 L28.3562 932.772 L28.3562 926.883 L33.8944 926.883 Q30.6479 925.037 29.0883 922.077 Q27.4968 919.117 27.4968 914.884 Q27.4968 914.279 27.5923 913.547 Q27.656 912.815 27.8151 911.924 L33.8307 911.892 Z" fill="#000000" fill-rule="evenodd" fill-opacity="1" /><path clip-path="url(#clip120)" d="M44.7161 876.69 L47.5806 876.69 L47.5806 903.617 Q53.6281 903.235 56.8109 899.988 Q59.9619 896.71 59.9619 890.885 Q59.9619 887.511 59.1344 884.36 Q58.3069 881.178 56.6518 878.058 L62.1899 878.058 Q63.5267 881.209 64.227 884.52 Q64.9272 887.83 64.9272 891.235 Q64.9272 899.765 59.9619 904.763 Q54.9967 909.728 46.5303 909.728 Q37.7774 909.728 32.6531 905.017 Q27.4968 900.275 27.4968 892.254 Q27.4968 885.061 32.1438 880.891 Q36.7589 876.69 44.7161 876.69 M42.9973 882.546 Q38.1912 882.61 35.3266 885.252 Q32.4621 887.862 32.4621 892.19 Q32.4621 897.092 35.2312 900.052 Q38.0002 902.98 43.0292 903.426 L42.9973 882.546 Z" fill="#000000" fill-rule="evenodd" fill-opacity="1" /><path clip-path="url(#clip120)" d="M29.4065 844.352 L34.9447 844.352 Q33.6716 846.835 33.035 849.508 Q32.3984 852.182 32.3984 855.046 Q32.3984 859.407 33.7352 861.603 Q35.072 863.767 37.7456 863.767 Q39.7826 863.767 40.9603 862.208 Q42.1061 860.648 43.1565 855.938 L43.6021 853.932 Q44.9389 847.694 47.3897 845.084 Q49.8086 842.442 54.1691 842.442 Q59.1344 842.442 62.0308 846.389 Q64.9272 850.304 64.9272 857.179 Q64.9272 860.043 64.3543 863.163 Q63.8132 866.25 62.6992 869.688 L56.6518 869.688 Q58.3387 866.441 59.198 863.29 Q60.0256 860.139 60.0256 857.052 Q60.0256 852.914 58.6251 850.686 Q57.1929 848.458 54.6147 848.458 Q52.2276 848.458 50.9545 850.081 Q49.6813 851.673 48.5037 857.115 L48.0262 859.152 Q46.8804 864.595 44.5251 867.014 Q42.138 869.433 38.0002 869.433 Q32.9713 869.433 30.2341 865.868 Q27.4968 862.303 27.4968 855.747 Q27.4968 852.5 27.9743 849.636 Q28.4517 846.771 29.4065 844.352 Z" fill="#000000" fill-rule="evenodd" fill-opacity="1" /><path clip-path="url(#clip120)" d="M29.4065 810.391 L34.9447 810.391 Q33.6716 812.874 33.035 815.547 Q32.3984 818.221 32.3984 821.085 Q32.3984 825.446 33.7352 827.642 Q35.072 829.806 37.7456 829.806 Q39.7826 829.806 40.9603 828.247 Q42.1061 826.687 43.1565 821.977 L43.6021 819.971 Q44.9389 813.733 47.3897 811.123 Q49.8086 808.481 54.1691 808.481 Q59.1344 808.481 62.0308 812.428 Q64.9272 816.343 64.9272 823.218 Q64.9272 826.082 64.3543 829.202 Q63.8132 832.289 62.6992 835.726 L56.6518 835.726 Q58.3387 832.48 59.198 829.329 Q60.0256 826.178 60.0256 823.091 Q60.0256 818.953 58.6251 816.725 Q57.1929 814.497 54.6147 814.497 Q52.2276 814.497 50.9545 816.12 Q49.6813 817.712 48.5037 823.154 L48.0262 825.191 Q46.8804 830.634 44.5251 833.053 Q42.138 835.472 38.0002 835.472 Q32.9713 835.472 30.2341 831.907 Q27.4968 828.342 27.4968 821.786 Q27.4968 818.539 27.9743 815.675 Q28.4517 812.81 29.4065 810.391 Z" fill="#000000" fill-rule="evenodd" fill-opacity="1" /><path clip-path="url(#clip120)" d="M49.9359 799.76 L28.3562 799.76 L28.3562 793.904 L49.7131 793.904 Q54.7739 793.904 57.3202 791.93 Q59.8346 789.957 59.8346 786.01 Q59.8346 781.268 56.8109 778.531 Q53.7872 775.762 48.5673 775.762 L28.3562 775.762 L28.3562 769.905 L64.0042 769.905 L64.0042 775.762 L58.5296 775.762 Q61.7762 777.894 63.3676 780.727 Q64.9272 783.528 64.9272 787.252 Q64.9272 793.395 61.1078 796.577 Q57.2883 799.76 49.9359 799.76 M27.4968 785.024 L27.4968 785.024 Z" fill="#000000" fill-rule="evenodd" fill-opacity="1" /><path clip-path="url(#clip120)" d="M33.8307 737.185 Q33.2578 738.172 33.0032 739.35 Q32.7167 740.496 32.7167 741.896 Q32.7167 746.861 35.9632 749.535 Q39.1779 752.177 45.2253 752.177 L64.0042 752.177 L64.0042 758.065 L28.3562 758.065 L28.3562 752.177 L33.8944 752.177 Q30.6479 750.331 29.0883 747.37 Q27.4968 744.41 27.4968 740.177 Q27.4968 739.572 27.5923 738.84 Q27.656 738.108 27.8151 737.217 L33.8307 737.185 Z" fill="#000000" fill-rule="evenodd" fill-opacity="1" /><path clip-path="url(#clip120)" d="M44.7161 701.983 L47.5806 701.983 L47.5806 728.91 Q53.6281 728.528 56.8109 725.281 Q59.9619 722.003 59.9619 716.179 Q59.9619 712.805 59.1344 709.654 Q58.3069 706.471 56.6518 703.352 L62.1899 703.352 Q63.5267 706.503 64.227 709.813 Q64.9272 713.123 64.9272 716.529 Q64.9272 725.059 59.9619 730.056 Q54.9967 735.021 46.5303 735.021 Q37.7774 735.021 32.6531 730.31 Q27.4968 725.568 27.4968 717.547 Q27.4968 710.354 32.1438 706.184 Q36.7589 701.983 44.7161 701.983 M42.9973 707.839 Q38.1912 707.903 35.3266 710.545 Q32.4621 713.155 32.4621 717.483 Q32.4621 722.385 35.2312 725.345 Q38.0002 728.273 43.0292 728.719 L42.9973 707.839 Z" fill="#000000" fill-rule="evenodd" fill-opacity="1" /><path clip-path="url(#clip120)" d="M14.5426 657.582 Q21.8632 661.847 29.0246 663.916 Q36.186 665.985 43.5384 665.985 Q50.8908 665.985 58.1159 663.916 Q65.3091 661.815 72.5979 657.582 L72.5979 662.675 Q65.1182 667.449 57.8931 669.836 Q50.668 672.191 43.5384 672.191 Q36.4406 672.191 29.2474 669.836 Q22.0542 667.481 14.5426 662.675 L14.5426 657.582 Z" fill="#000000" fill-rule="evenodd" fill-opacity="1" /><path clip-path="url(#clip120)" d="M16.4842 645.965 L16.4842 636.384 L48.8219 624.258 L16.4842 612.067 L16.4842 602.487 L64.0042 602.487 L64.0042 608.757 L22.277 608.757 L54.8694 621.011 L54.8694 627.472 L22.277 639.726 L64.0042 639.726 L64.0042 645.965 L16.4842 645.965 Z" fill="#000000" fill-rule="evenodd" fill-opacity="1" /><path clip-path="url(#clip120)" d="M21.7677 583.294 L39.6235 583.294 L39.6235 575.21 Q39.6235 570.722 37.3 568.271 Q34.9765 565.821 30.6797 565.821 Q26.4147 565.821 24.0912 568.271 Q21.7677 570.722 21.7677 575.21 L21.7677 583.294 M16.4842 589.724 L16.4842 575.21 Q16.4842 567.221 20.1126 563.147 Q23.7092 559.041 30.6797 559.041 Q37.7138 559.041 41.3104 563.147 Q44.907 567.221 44.907 575.21 L44.907 583.294 L64.0042 583.294 L64.0042 589.724 L16.4842 589.724 Z" fill="#000000" fill-rule="evenodd" fill-opacity="1" /><path clip-path="url(#clip120)" d="M46.0847 537.398 Q46.0847 544.495 47.7079 547.233 Q49.3312 549.97 53.2461 549.97 Q56.3653 549.97 58.2114 547.933 Q60.0256 545.864 60.0256 542.331 Q60.0256 537.461 56.5881 534.533 Q53.1188 531.573 47.3897 531.573 L46.0847 531.573 L46.0847 537.398 M43.6657 525.717 L64.0042 525.717 L64.0042 531.573 L58.5933 531.573 Q61.8398 533.578 63.3994 536.57 Q64.9272 539.562 64.9272 543.891 Q64.9272 549.365 61.8716 552.612 Q58.7843 555.826 53.6281 555.826 Q47.6125 555.826 44.5569 551.816 Q41.5014 547.774 41.5014 539.785 L41.5014 531.573 L40.9285 531.573 Q36.8862 531.573 34.6901 534.247 Q32.4621 536.888 32.4621 541.694 Q32.4621 544.75 33.1941 547.646 Q33.9262 550.543 35.3903 553.216 L29.9795 553.216 Q28.7381 550.002 28.1334 546.978 Q27.4968 543.954 27.4968 541.09 Q27.4968 533.355 31.5072 529.536 Q35.5176 525.717 43.6657 525.717 Z" fill="#000000" fill-rule="evenodd" fill-opacity="1" /><path clip-path="url(#clip120)" d="M14.5426 514.577 L14.5426 509.484 Q22.0542 504.71 29.2474 502.354 Q36.4406 499.967 43.5384 499.967 Q50.668 499.967 57.8931 502.354 Q65.1182 504.71 72.5979 509.484 L72.5979 514.577 Q65.3091 510.343 58.1159 508.275 Q50.8908 506.174 43.5384 506.174 Q36.186 506.174 29.0246 508.275 Q21.8632 510.343 14.5426 514.577 Z" fill="#000000" fill-rule="evenodd" fill-opacity="1" /><polyline clip-path="url(#clip122)" style="stroke:#ff0000; stroke-linecap:butt; stroke-linejoin:round; stroke-width:4; stroke-opacity:1; fill:none" stroke-dasharray="2, 4" points="
  265.903,1356.65 675.519,1338.75 833.997,1320.86 942.254,1302.97 1026.45,1285.07 1096.21,1267.18 1156.2,1249.29 1209.13,1231.39 1256.71,1213.5 1299.9,1195.6 
  1339.67,1177.71 1376.35,1159.82 1410.63,1141.92 1442.85,1124.03 1473.36,1106.13 1502.15,1088.24 1529.58,1070.35 1555.63,1052.45 1580.66,1034.56 1604.65,1016.67 
  1627.62,998.771 1649.56,980.878 1670.81,962.984 1691.73,945.09 1711.61,927.196 1730.8,909.302 1749.66,891.408 1767.83,873.515 1785.31,855.621 1802.45,837.727 
  1819.25,819.833 1835.7,801.939 1851.47,784.045 1867.24,766.152 1882.32,748.258 1897.06,730.364 1911.8,712.47 1925.86,694.576 1939.91,676.682 1953.63,658.789 
  1967,640.895 1980.02,623.001 1993.05,605.107 2005.39,587.213 2018.07,569.319 2030.07,551.425 2042.07,533.532 2054.07,515.638 2065.72,497.744 2077.04,479.85 
  2088.35,461.956 2099.32,444.062 2110.29,426.169 2120.91,408.275 2131.54,390.381 2142.17,372.487 2152.45,354.593 2162.39,336.699 2172.34,318.806 2182.28,300.912 
  2192.22,283.018 2201.82,265.124 2211.41,247.23 2220.67,229.336 2229.93,211.443 2239.18,193.549 2248.09,175.655 2257.01,157.761 2265.92,139.867 2274.83,121.973 
  2283.4,104.08 2291.97,86.1857 
  "/>
<line clip-path="url(#clip122)" x1="1734.67" y1="907.627" x2="1734.67" y2="895.627" style="stroke:#0000ff; stroke-width:3.2; stroke-opacity:1"/>
<line clip-path="url(#clip122)" x1="1734.67" y1="907.627" x2="1722.67" y2="907.627" style="stroke:#0000ff; stroke-width:3.2; stroke-opacity:1"/>
<line clip-path="url(#clip122)" x1="1734.67" y1="907.627" x2="1734.67" y2="919.627" style="stroke:#0000ff; stroke-width:3.2; stroke-opacity:1"/>
<line clip-path="url(#clip122)" x1="1734.67" y1="907.627" x2="1746.67" y2="907.627" style="stroke:#0000ff; stroke-width:3.2; stroke-opacity:1"/>
<line clip-path="url(#clip122)" x1="1800.15" y1="835.389" x2="1800.15" y2="823.389" style="stroke:#0000ff; stroke-width:3.2; stroke-opacity:1"/>
<line clip-path="url(#clip122)" x1="1800.15" y1="835.389" x2="1788.15" y2="835.389" style="stroke:#0000ff; stroke-width:3.2; stroke-opacity:1"/>
<line clip-path="url(#clip122)" x1="1800.15" y1="835.389" x2="1800.15" y2="847.389" style="stroke:#0000ff; stroke-width:3.2; stroke-opacity:1"/>
<line clip-path="url(#clip122)" x1="1800.15" y1="835.389" x2="1812.15" y2="835.389" style="stroke:#0000ff; stroke-width:3.2; stroke-opacity:1"/>
<line clip-path="url(#clip122)" x1="1865.64" y1="759.034" x2="1865.64" y2="747.034" style="stroke:#0000ff; stroke-width:3.2; stroke-opacity:1"/>
<line clip-path="url(#clip122)" x1="1865.64" y1="759.034" x2="1853.64" y2="759.034" style="stroke:#0000ff; stroke-width:3.2; stroke-opacity:1"/>
<line clip-path="url(#clip122)" x1="1865.64" y1="759.034" x2="1865.64" y2="771.034" style="stroke:#0000ff; stroke-width:3.2; stroke-opacity:1"/>
<line clip-path="url(#clip122)" x1="1865.64" y1="759.034" x2="1877.64" y2="759.034" style="stroke:#0000ff; stroke-width:3.2; stroke-opacity:1"/>
<line clip-path="url(#clip122)" x1="1931.12" y1="672.439" x2="1931.12" y2="660.439" style="stroke:#0000ff; stroke-width:3.2; stroke-opacity:1"/>
<line clip-path="url(#clip122)" x1="1931.12" y1="672.439" x2="1919.12" y2="672.439" style="stroke:#0000ff; stroke-width:3.2; stroke-opacity:1"/>
<line clip-path="url(#clip122)" x1="1931.12" y1="672.439" x2="1931.12" y2="684.439" style="stroke:#0000ff; stroke-width:3.2; stroke-opacity:1"/>
<line clip-path="url(#clip122)" x1="1931.12" y1="672.439" x2="1943.12" y2="672.439" style="stroke:#0000ff; stroke-width:3.2; stroke-opacity:1"/>
<line clip-path="url(#clip122)" x1="1996.61" y1="576.423" x2="1996.61" y2="564.423" style="stroke:#0000ff; stroke-width:3.2; stroke-opacity:1"/>
<line clip-path="url(#clip122)" x1="1996.61" y1="576.423" x2="1984.61" y2="576.423" style="stroke:#0000ff; stroke-width:3.2; stroke-opacity:1"/>
<line clip-path="url(#clip122)" x1="1996.61" y1="576.423" x2="1996.61" y2="588.423" style="stroke:#0000ff; stroke-width:3.2; stroke-opacity:1"/>
<line clip-path="url(#clip122)" x1="1996.61" y1="576.423" x2="2008.61" y2="576.423" style="stroke:#0000ff; stroke-width:3.2; stroke-opacity:1"/>
<line clip-path="url(#clip122)" x1="2062.1" y1="470.655" x2="2062.1" y2="458.655" style="stroke:#0000ff; stroke-width:3.2; stroke-opacity:1"/>
<line clip-path="url(#clip122)" x1="2062.1" y1="470.655" x2="2050.1" y2="470.655" style="stroke:#0000ff; stroke-width:3.2; stroke-opacity:1"/>
<line clip-path="url(#clip122)" x1="2062.1" y1="470.655" x2="2062.1" y2="482.655" style="stroke:#0000ff; stroke-width:3.2; stroke-opacity:1"/>
<line clip-path="url(#clip122)" x1="2062.1" y1="470.655" x2="2074.1" y2="470.655" style="stroke:#0000ff; stroke-width:3.2; stroke-opacity:1"/>
<line clip-path="url(#clip122)" x1="2127.58" y1="353.912" x2="2127.58" y2="341.912" style="stroke:#0000ff; stroke-width:3.2; stroke-opacity:1"/>
<line clip-path="url(#clip122)" x1="2127.58" y1="353.912" x2="2115.58" y2="353.912" style="stroke:#0000ff; stroke-width:3.2; stroke-opacity:1"/>
<line clip-path="url(#clip122)" x1="2127.58" y1="353.912" x2="2127.58" y2="365.912" style="stroke:#0000ff; stroke-width:3.2; stroke-opacity:1"/>
<line clip-path="url(#clip122)" x1="2127.58" y1="353.912" x2="2139.58" y2="353.912" style="stroke:#0000ff; stroke-width:3.2; stroke-opacity:1"/>
<line clip-path="url(#clip122)" x1="2193.07" y1="231.191" x2="2193.07" y2="219.191" style="stroke:#0000ff; stroke-width:3.2; stroke-opacity:1"/>
<line clip-path="url(#clip122)" x1="2193.07" y1="231.191" x2="2181.07" y2="231.191" style="stroke:#0000ff; stroke-width:3.2; stroke-opacity:1"/>
<line clip-path="url(#clip122)" x1="2193.07" y1="231.191" x2="2193.07" y2="243.191" style="stroke:#0000ff; stroke-width:3.2; stroke-opacity:1"/>
<line clip-path="url(#clip122)" x1="2193.07" y1="231.191" x2="2205.07" y2="231.191" style="stroke:#0000ff; stroke-width:3.2; stroke-opacity:1"/>
<line clip-path="url(#clip122)" x1="2258.56" y1="95.9535" x2="2258.56" y2="83.9535" style="stroke:#0000ff; stroke-width:3.2; stroke-opacity:1"/>
<line clip-path="url(#clip122)" x1="2258.56" y1="95.9535" x2="2246.56" y2="95.9535" style="stroke:#0000ff; stroke-width:3.2; stroke-opacity:1"/>
<line clip-path="url(#clip122)" x1="2258.56" y1="95.9535" x2="2258.56" y2="107.954" style="stroke:#0000ff; stroke-width:3.2; stroke-opacity:1"/>
<line clip-path="url(#clip122)" x1="2258.56" y1="95.9535" x2="2270.56" y2="95.9535" style="stroke:#0000ff; stroke-width:3.2; stroke-opacity:1"/>
<line clip-path="url(#clip122)" x1="424.942" y1="1384.24" x2="424.942" y2="1372.24" style="stroke:#0000ff; stroke-width:3.2; stroke-opacity:1"/>
<line clip-path="url(#clip122)" x1="424.942" y1="1384.24" x2="412.942" y2="1384.24" style="stroke:#0000ff; stroke-width:3.2; stroke-opacity:1"/>
<line clip-path="url(#clip122)" x1="424.942" y1="1384.24" x2="424.942" y2="1396.24" style="stroke:#0000ff; stroke-width:3.2; stroke-opacity:1"/>
<line clip-path="url(#clip122)" x1="424.942" y1="1384.24" x2="436.942" y2="1384.24" style="stroke:#0000ff; stroke-width:3.2; stroke-opacity:1"/>
<line clip-path="url(#clip122)" x1="490.429" y1="1382.47" x2="490.429" y2="1370.47" style="stroke:#0000ff; stroke-width:3.2; stroke-opacity:1"/>
<line clip-path="url(#clip122)" x1="490.429" y1="1382.47" x2="478.429" y2="1382.47" style="stroke:#0000ff; stroke-width:3.2; stroke-opacity:1"/>
<line clip-path="url(#clip122)" x1="490.429" y1="1382.47" x2="490.429" y2="1394.47" style="stroke:#0000ff; stroke-width:3.2; stroke-opacity:1"/>
<line clip-path="url(#clip122)" x1="490.429" y1="1382.47" x2="502.429" y2="1382.47" style="stroke:#0000ff; stroke-width:3.2; stroke-opacity:1"/>
<line clip-path="url(#clip122)" x1="555.915" y1="1379.96" x2="555.915" y2="1367.96" style="stroke:#0000ff; stroke-width:3.2; stroke-opacity:1"/>
<line clip-path="url(#clip122)" x1="555.915" y1="1379.96" x2="543.915" y2="1379.96" style="stroke:#0000ff; stroke-width:3.2; stroke-opacity:1"/>
<line clip-path="url(#clip122)" x1="555.915" y1="1379.96" x2="555.915" y2="1391.96" style="stroke:#0000ff; stroke-width:3.2; stroke-opacity:1"/>
<line clip-path="url(#clip122)" x1="555.915" y1="1379.96" x2="567.915" y2="1379.96" style="stroke:#0000ff; stroke-width:3.2; stroke-opacity:1"/>
<line clip-path="url(#clip122)" x1="621.401" y1="1377.57" x2="621.401" y2="1365.57" style="stroke:#0000ff; stroke-width:3.2; stroke-opacity:1"/>
<line clip-path="url(#clip122)" x1="621.401" y1="1377.57" x2="609.401" y2="1377.57" style="stroke:#0000ff; stroke-width:3.2; stroke-opacity:1"/>
<line clip-path="url(#clip122)" x1="621.401" y1="1377.57" x2="621.401" y2="1389.57" style="stroke:#0000ff; stroke-width:3.2; stroke-opacity:1"/>
<line clip-path="url(#clip122)" x1="621.401" y1="1377.57" x2="633.401" y2="1377.57" style="stroke:#0000ff; stroke-width:3.2; stroke-opacity:1"/>
<line clip-path="url(#clip122)" x1="686.887" y1="1371.65" x2="686.887" y2="1359.65" style="stroke:#0000ff; stroke-width:3.2; stroke-opacity:1"/>
<line clip-path="url(#clip122)" x1="686.887" y1="1371.65" x2="674.887" y2="1371.65" style="stroke:#0000ff; stroke-width:3.2; stroke-opacity:1"/>
<line clip-path="url(#clip122)" x1="686.887" y1="1371.65" x2="686.887" y2="1383.65" style="stroke:#0000ff; stroke-width:3.2; stroke-opacity:1"/>
<line clip-path="url(#clip122)" x1="686.887" y1="1371.65" x2="698.887" y2="1371.65" style="stroke:#0000ff; stroke-width:3.2; stroke-opacity:1"/>
<line clip-path="url(#clip122)" x1="752.373" y1="1365.49" x2="752.373" y2="1353.49" style="stroke:#0000ff; stroke-width:3.2; stroke-opacity:1"/>
<line clip-path="url(#clip122)" x1="752.373" y1="1365.49" x2="740.373" y2="1365.49" style="stroke:#0000ff; stroke-width:3.2; stroke-opacity:1"/>
<line clip-path="url(#clip122)" x1="752.373" y1="1365.49" x2="752.373" y2="1377.49" style="stroke:#0000ff; stroke-width:3.2; stroke-opacity:1"/>
<line clip-path="url(#clip122)" x1="752.373" y1="1365.49" x2="764.373" y2="1365.49" style="stroke:#0000ff; stroke-width:3.2; stroke-opacity:1"/>
<line clip-path="url(#clip122)" x1="817.859" y1="1356.17" x2="817.859" y2="1344.17" style="stroke:#0000ff; stroke-width:3.2; stroke-opacity:1"/>
<line clip-path="url(#clip122)" x1="817.859" y1="1356.17" x2="805.859" y2="1356.17" style="stroke:#0000ff; stroke-width:3.2; stroke-opacity:1"/>
<line clip-path="url(#clip122)" x1="817.859" y1="1356.17" x2="817.859" y2="1368.17" style="stroke:#0000ff; stroke-width:3.2; stroke-opacity:1"/>
<line clip-path="url(#clip122)" x1="817.859" y1="1356.17" x2="829.859" y2="1356.17" style="stroke:#0000ff; stroke-width:3.2; stroke-opacity:1"/>
<line clip-path="url(#clip122)" x1="883.346" y1="1348.19" x2="883.346" y2="1336.19" style="stroke:#0000ff; stroke-width:3.2; stroke-opacity:1"/>
<line clip-path="url(#clip122)" x1="883.346" y1="1348.19" x2="871.346" y2="1348.19" style="stroke:#0000ff; stroke-width:3.2; stroke-opacity:1"/>
<line clip-path="url(#clip122)" x1="883.346" y1="1348.19" x2="883.346" y2="1360.19" style="stroke:#0000ff; stroke-width:3.2; stroke-opacity:1"/>
<line clip-path="url(#clip122)" x1="883.346" y1="1348.19" x2="895.346" y2="1348.19" style="stroke:#0000ff; stroke-width:3.2; stroke-opacity:1"/>
<line clip-path="url(#clip122)" x1="948.832" y1="1335.21" x2="948.832" y2="1323.21" style="stroke:#0000ff; stroke-width:3.2; stroke-opacity:1"/>
<line clip-path="url(#clip122)" x1="948.832" y1="1335.21" x2="936.832" y2="1335.21" style="stroke:#0000ff; stroke-width:3.2; stroke-opacity:1"/>
<line clip-path="url(#clip122)" x1="948.832" y1="1335.21" x2="948.832" y2="1347.21" style="stroke:#0000ff; stroke-width:3.2; stroke-opacity:1"/>
<line clip-path="url(#clip122)" x1="948.832" y1="1335.21" x2="960.832" y2="1335.21" style="stroke:#0000ff; stroke-width:3.2; stroke-opacity:1"/>
<line clip-path="url(#clip122)" x1="1014.32" y1="1320.91" x2="1014.32" y2="1308.91" style="stroke:#0000ff; stroke-width:3.2; stroke-opacity:1"/>
<line clip-path="url(#clip122)" x1="1014.32" y1="1320.91" x2="1002.32" y2="1320.91" style="stroke:#0000ff; stroke-width:3.2; stroke-opacity:1"/>
<line clip-path="url(#clip122)" x1="1014.32" y1="1320.91" x2="1014.32" y2="1332.91" style="stroke:#0000ff; stroke-width:3.2; stroke-opacity:1"/>
<line clip-path="url(#clip122)" x1="1014.32" y1="1320.91" x2="1026.32" y2="1320.91" style="stroke:#0000ff; stroke-width:3.2; stroke-opacity:1"/>
<line clip-path="url(#clip122)" x1="1079.8" y1="1303.65" x2="1079.8" y2="1291.65" style="stroke:#0000ff; stroke-width:3.2; stroke-opacity:1"/>
<line clip-path="url(#clip122)" x1="1079.8" y1="1303.65" x2="1067.8" y2="1303.65" style="stroke:#0000ff; stroke-width:3.2; stroke-opacity:1"/>
<line clip-path="url(#clip122)" x1="1079.8" y1="1303.65" x2="1079.8" y2="1315.65" style="stroke:#0000ff; stroke-width:3.2; stroke-opacity:1"/>
<line clip-path="url(#clip122)" x1="1079.8" y1="1303.65" x2="1091.8" y2="1303.65" style="stroke:#0000ff; stroke-width:3.2; stroke-opacity:1"/>
<line clip-path="url(#clip122)" x1="1145.29" y1="1283.68" x2="1145.29" y2="1271.68" style="stroke:#0000ff; stroke-width:3.2; stroke-opacity:1"/>
<line clip-path="url(#clip122)" x1="1145.29" y1="1283.68" x2="1133.29" y2="1283.68" style="stroke:#0000ff; stroke-width:3.2; stroke-opacity:1"/>
<line clip-path="url(#clip122)" x1="1145.29" y1="1283.68" x2="1145.29" y2="1295.68" style="stroke:#0000ff; stroke-width:3.2; stroke-opacity:1"/>
<line clip-path="url(#clip122)" x1="1145.29" y1="1283.68" x2="1157.29" y2="1283.68" style="stroke:#0000ff; stroke-width:3.2; stroke-opacity:1"/>
<line clip-path="url(#clip122)" x1="1210.78" y1="1255.93" x2="1210.78" y2="1243.93" style="stroke:#0000ff; stroke-width:3.2; stroke-opacity:1"/>
<line clip-path="url(#clip122)" x1="1210.78" y1="1255.93" x2="1198.78" y2="1255.93" style="stroke:#0000ff; stroke-width:3.2; stroke-opacity:1"/>
<line clip-path="url(#clip122)" x1="1210.78" y1="1255.93" x2="1210.78" y2="1267.93" style="stroke:#0000ff; stroke-width:3.2; stroke-opacity:1"/>
<line clip-path="url(#clip122)" x1="1210.78" y1="1255.93" x2="1222.78" y2="1255.93" style="stroke:#0000ff; stroke-width:3.2; stroke-opacity:1"/>
<line clip-path="url(#clip122)" x1="1276.26" y1="1231.85" x2="1276.26" y2="1219.85" style="stroke:#0000ff; stroke-width:3.2; stroke-opacity:1"/>
<line clip-path="url(#clip122)" x1="1276.26" y1="1231.85" x2="1264.26" y2="1231.85" style="stroke:#0000ff; stroke-width:3.2; stroke-opacity:1"/>
<line clip-path="url(#clip122)" x1="1276.26" y1="1231.85" x2="1276.26" y2="1243.85" style="stroke:#0000ff; stroke-width:3.2; stroke-opacity:1"/>
<line clip-path="url(#clip122)" x1="1276.26" y1="1231.85" x2="1288.26" y2="1231.85" style="stroke:#0000ff; stroke-width:3.2; stroke-opacity:1"/>
<line clip-path="url(#clip122)" x1="1341.75" y1="1200.72" x2="1341.75" y2="1188.72" style="stroke:#0000ff; stroke-width:3.2; stroke-opacity:1"/>
<line clip-path="url(#clip122)" x1="1341.75" y1="1200.72" x2="1329.75" y2="1200.72" style="stroke:#0000ff; stroke-width:3.2; stroke-opacity:1"/>
<line clip-path="url(#clip122)" x1="1341.75" y1="1200.72" x2="1341.75" y2="1212.72" style="stroke:#0000ff; stroke-width:3.2; stroke-opacity:1"/>
<line clip-path="url(#clip122)" x1="1341.75" y1="1200.72" x2="1353.75" y2="1200.72" style="stroke:#0000ff; stroke-width:3.2; stroke-opacity:1"/>
<line clip-path="url(#clip122)" x1="1407.24" y1="1166.17" x2="1407.24" y2="1154.17" style="stroke:#0000ff; stroke-width:3.2; stroke-opacity:1"/>
<line clip-path="url(#clip122)" x1="1407.24" y1="1166.17" x2="1395.24" y2="1166.17" style="stroke:#0000ff; stroke-width:3.2; stroke-opacity:1"/>
<line clip-path="url(#clip122)" x1="1407.24" y1="1166.17" x2="1407.24" y2="1178.17" style="stroke:#0000ff; stroke-width:3.2; stroke-opacity:1"/>
<line clip-path="url(#clip122)" x1="1407.24" y1="1166.17" x2="1419.24" y2="1166.17" style="stroke:#0000ff; stroke-width:3.2; stroke-opacity:1"/>
<line clip-path="url(#clip122)" x1="1472.72" y1="1121.57" x2="1472.72" y2="1109.57" style="stroke:#0000ff; stroke-width:3.2; stroke-opacity:1"/>
<line clip-path="url(#clip122)" x1="1472.72" y1="1121.57" x2="1460.72" y2="1121.57" style="stroke:#0000ff; stroke-width:3.2; stroke-opacity:1"/>
<line clip-path="url(#clip122)" x1="1472.72" y1="1121.57" x2="1472.72" y2="1133.57" style="stroke:#0000ff; stroke-width:3.2; stroke-opacity:1"/>
<line clip-path="url(#clip122)" x1="1472.72" y1="1121.57" x2="1484.72" y2="1121.57" style="stroke:#0000ff; stroke-width:3.2; stroke-opacity:1"/>
<line clip-path="url(#clip122)" x1="1538.21" y1="1074.57" x2="1538.21" y2="1062.57" style="stroke:#0000ff; stroke-width:3.2; stroke-opacity:1"/>
<line clip-path="url(#clip122)" x1="1538.21" y1="1074.57" x2="1526.21" y2="1074.57" style="stroke:#0000ff; stroke-width:3.2; stroke-opacity:1"/>
<line clip-path="url(#clip122)" x1="1538.21" y1="1074.57" x2="1538.21" y2="1086.57" style="stroke:#0000ff; stroke-width:3.2; stroke-opacity:1"/>
<line clip-path="url(#clip122)" x1="1538.21" y1="1074.57" x2="1550.21" y2="1074.57" style="stroke:#0000ff; stroke-width:3.2; stroke-opacity:1"/>
<line clip-path="url(#clip122)" x1="1603.69" y1="1025.43" x2="1603.69" y2="1013.43" style="stroke:#0000ff; stroke-width:3.2; stroke-opacity:1"/>
<line clip-path="url(#clip122)" x1="1603.69" y1="1025.43" x2="1591.69" y2="1025.43" style="stroke:#0000ff; stroke-width:3.2; stroke-opacity:1"/>
<line clip-path="url(#clip122)" x1="1603.69" y1="1025.43" x2="1603.69" y2="1037.43" style="stroke:#0000ff; stroke-width:3.2; stroke-opacity:1"/>
<line clip-path="url(#clip122)" x1="1603.69" y1="1025.43" x2="1615.69" y2="1025.43" style="stroke:#0000ff; stroke-width:3.2; stroke-opacity:1"/>
<line clip-path="url(#clip122)" x1="1669.18" y1="966.957" x2="1669.18" y2="954.957" style="stroke:#0000ff; stroke-width:3.2; stroke-opacity:1"/>
<line clip-path="url(#clip122)" x1="1669.18" y1="966.957" x2="1657.18" y2="966.957" style="stroke:#0000ff; stroke-width:3.2; stroke-opacity:1"/>
<line clip-path="url(#clip122)" x1="1669.18" y1="966.957" x2="1669.18" y2="978.957" style="stroke:#0000ff; stroke-width:3.2; stroke-opacity:1"/>
<line clip-path="url(#clip122)" x1="1669.18" y1="966.957" x2="1681.18" y2="966.957" style="stroke:#0000ff; stroke-width:3.2; stroke-opacity:1"/>
<line clip-path="url(#clip122)" x1="1734.67" y1="906.928" x2="1734.67" y2="894.928" style="stroke:#0000ff; stroke-width:3.2; stroke-opacity:1"/>
<line clip-path="url(#clip122)" x1="1734.67" y1="906.928" x2="1722.67" y2="906.928" style="stroke:#0000ff; stroke-width:3.2; stroke-opacity:1"/>
<line clip-path="url(#clip122)" x1="1734.67" y1="906.928" x2="1734.67" y2="918.928" style="stroke:#0000ff; stroke-width:3.2; stroke-opacity:1"/>
<line clip-path="url(#clip122)" x1="1734.67" y1="906.928" x2="1746.67" y2="906.928" style="stroke:#0000ff; stroke-width:3.2; stroke-opacity:1"/>
</svg>
